<?xml version="1.0" encoding="UTF-8"?>
<svg width="24px" height="24px" viewBox="0 0 24 24" version="1.1" xmlns="http://www.w3.org/2000/svg" xmlns:xlink="http://www.w3.org/1999/xlink">
    <title>Icon/product/folder-arrow-up</title>
    <g id="Icon/product/folder-arrow-up" stroke="none" stroke-width="1" fill="none" fill-rule="evenodd">
        <path d="M9.75691652,6 C10.1249639,6 10.6351945,6.19724166 10.9461128,6.45429461 L11.0330674,6.53306741 L11.4669326,6.96693259 C11.7384711,7.23847114 12.2335401,7.45685481 12.6315891,7.49431682 L12.7477726,7.5 L18,7.5 C18.7875,7.5 19.4383264,8.11503099 19.4958654,8.88847906 L19.5,9 L19.5,16.5 C19.5,17.2875 18.884969,17.9383264 18.1115209,17.9958654 L18,18 L6,18 C5.2125,18 4.56167355,17.384969 4.50413458,16.6115209 L4.5,16.5 L4.5075,7.5 C4.5075,6.7125 5.11569731,6.06167355 5.88852414,6.00413458 L6,6 L9.75691652,6 Z M9.75691652,7.5 L6.00749948,7.50125 L6,16.5 L18,16.5 L18,9 L12.7477726,9 C11.9888024,9 11.1106463,8.65670176 10.5267406,8.14073726 L10.4062724,8.02759277 L9.97240723,7.59372758 L9.95266581,7.58245704 L9.81352583,7.52152998 L9.75691652,7.5 Z M12,10.6666667 L15.3333333,14 L8.66666667,14 L12,10.6666667 Z" id="Combined-Shape" fill="#ffffff"></path>
        <g id="Icon-24px" transform="translate(12.000000, 12.333333) rotate(-180.000000) translate(-12.000000, -12.333333) translate(8.666667, 10.666667)"></g>
    </g>
</svg>
