<?xml version="1.0" encoding="UTF-8"?>
<svg width="24px" height="24px" viewBox="0 0 24 24" version="1.1" xmlns="http://www.w3.org/2000/svg" xmlns:xlink="http://www.w3.org/1999/xlink">
    <title>Icon/product/folder</title>
    <g id="Icon/product/folder" stroke="none" stroke-width="1" fill="none" fill-rule="evenodd">
        <g id="Icon/product/insert-emoticon" transform="translate(3.000000, 3.000000)" fill="#8B96A0">
            <g id="Icon-24px" transform="translate(1.500000, 3.000000)">
                <path d="M5.25691652,0 C5.62496388,0 6.13519446,0.197241658 6.44611277,0.454294611 L6.53306741,0.533067405 L6.96693259,0.966932595 C7.23847114,1.23847114 7.7335401,1.45685481 8.13158907,1.49431682 L8.2477726,1.5 L13.5,1.5 C14.2875,1.5 14.9383264,2.11503099 14.9958654,2.88847906 L15,3 L15,10.5 C15,11.2875 14.384969,11.9383264 13.6115209,11.9958654 L13.5,12 L1.5,12 C0.7125,12 0.0616735537,11.384969 0.00413457926,10.6115209 L0,10.5 L0.0075,1.5 C0.0075,0.7125 0.615697314,0.0616735537 1.38852414,0.00413457926 L1.5,0 L5.25691652,0 Z M5.25691652,1.5 L1.50749948,1.50125 L1.5,10.5 L13.5,10.5 L13.5,3 L8.2477726,3 C7.48880238,3 6.61064626,2.65670176 6.02674057,2.14073726 L5.90627242,2.02759277 L5.47240723,1.59372758 L5.45266581,1.58245704 L5.31352583,1.52152998 L5.25691652,1.5 Z" id="Shape"></path>
            </g>
        </g>
    </g>
</svg>