<?xml version="1.0" encoding="UTF-8"?>
<svg width="24px" height="24px" viewBox="0 0 24 24" version="1.1" xmlns="http://www.w3.org/2000/svg" xmlns:xlink="http://www.w3.org/1999/xlink">
    <title>Icon/product/add_circle</title>
    <g id="Icon/product/add_circle" stroke="none" stroke-width="1" fill="none" fill-rule="evenodd">
        <g id="Icon-24px" transform="translate(2.000000, 2.000000)" fill="#46BA93">
            <path d="M10,0 C4.48,0 0,4.48 0,10 C0,15.52 4.48,20 10,20 C15.52,20 20,15.52 20,10 C20,4.48 15.52,0 10,0 L10,0 Z M15,11 L11,11 L11,15 L9,15 L9,11 L5,11 L5,9 L9,9 L9,5 L11,5 L11,9 L15,9 L15,11 L15,11 Z" id="Shape"></path>
        </g>
    </g>
</svg>