<svg xmlns="http://www.w3.org/2000/svg" width="18" height="18" viewBox="0 0 18 18">
    <defs>
        <filter id="vpyr7id2ja" width="157.5%" height="151.5%" x="-28.8%" y="-25.7%" filterUnits="objectBoundingBox">
            <feOffset dy="8" in="SourceAlpha" result="shadowOffsetOuter1"/>
            <feGaussianBlur in="shadowOffsetOuter1" result="shadowBlurOuter1" stdDeviation="8"/>
            <feColorMatrix in="shadowBlurOuter1" result="shadowMatrixOuter1" values="0 0 0 0 0.031372549 0 0 0 0 0.176470588 0 0 0 0 0.239215686 0 0 0 0.2 0"/>
            <feOffset dy="4" in="SourceAlpha" result="shadowOffsetOuter2"/>
            <feGaussianBlur in="shadowOffsetOuter2" result="shadowBlurOuter2" stdDeviation="6"/>
            <feColorMatrix in="shadowBlurOuter2" result="shadowMatrixOuter2" values="0 0 0 0 0.0311856736 0 0 0 0 0.177658465 0 0 0 0 0.240432518 0 0 0 0.1 0"/>
            <feMerge>
                <feMergeNode in="shadowMatrixOuter1"/>
                <feMergeNode in="shadowMatrixOuter2"/>
                <feMergeNode in="SourceGraphic"/>
            </feMerge>
        </filter>
    </defs>
    <g fill="none" fill-rule="evenodd">
        <g fill="#8B96A0">
            <g filter="url(#vpyr7id2ja)" transform="translate(-885 -105) translate(870 88)">
                <g>
                    <g>
                        <g>
                            <path d="M3 13.387v.863c0 .414-.336.75-.75.75s-.75-.336-.75-.75v-.863c0-2.23 3.426-3.637 6.375-3.637 2.888 0 6.232 1.35 6.37 3.5l.005.137v.863c0 .414-.336.75-.75.75s-.75-.336-.75-.75v-.863c0-.982-2.404-2.021-4.525-2.128l-.176-.007-.174-.002c-2.138 0-4.734 1.044-4.87 2.056L3 13.388zM7.88 2.25c1.865 0 3.37 1.51 3.37 3.375S9.745 9 7.88 9C6.014 9 4.5 7.489 4.5 5.625S6.014 2.25 7.88 2.25zm0 1.5C6.842 3.75 6 4.59 6 5.625 6 6.659 6.842 7.5 7.88 7.5c1.035 0 1.87-.838 1.87-1.875S8.915 3.75 7.88 3.75zM15 2.25v1.875h1.875v.75H15V6.75h-.75V4.874l-1.875.001v-.75h1.875V2.25H15z" transform="translate(0 8) translate(12 6) translate(3 3)"/>
                        </g>
                    </g>
                </g>
            </g>
        </g>
    </g>
</svg>
