<?xml version="1.0" encoding="UTF-8"?>
<svg width="24px" height="24px" viewBox="0 0 24 24" version="1.1" xmlns="http://www.w3.org/2000/svg" xmlns:xlink="http://www.w3.org/1999/xlink">
    <title>Icon/product/agileboard-new</title>
    <g id="Icon/product/agileboard-new" stroke="none" stroke-width="1" fill="none" fill-rule="evenodd">
        <g id="ic_view_carousel" transform="translate(1.000000, 5.000000)" fill="#8B96A0">
            <path d="M15.0046024,0 C15.5057832,0 15.9344762,0.388929305 15.993161,0.889990059 L16,1.00748397 L16,13.992516 C16,14.5111824 15.6157365,14.9353091 15.1206868,14.9932524 L15.0046024,15 L6.99539757,15 C6.49421677,15 6.06552384,14.6110707 6.00683903,14.1100099 L6,13.992516 L6,1.00748397 C6,0.488817617 6.38426347,0.0646908638 6.87931318,0.00674758454 L6.99539757,0 L15.0046024,0 Z M14,2 L8,2 L8,13 L14,13 L14,2 Z M4.00019251,2 C4.51656258,2 4.93603857,2.38433293 4.99332917,2.87947213 L5,2.9955775 L5,12.0044225 C5,12.5158244 4.61403413,12.9359115 4.11679118,12.9933148 L4.00019251,13 L0.999807492,13 C0.48343742,13 0.0639614299,12.6156671 0.00667082969,12.1205279 L0,12.0044225 L0,2.9955775 C0,2.48417558 0.385965874,2.06408846 0.883208817,2.00668521 L0.999807492,2 L4.00019251,2 Z M21.0001925,2 C21.5165626,2 21.9360386,2.38433293 21.9933292,2.87947213 L22,2.9955775 L22,12.0044225 C22,12.5158244 21.6140341,12.9359115 21.1167912,12.9933148 L21.0001925,13 L17.9998075,13 C17.4834374,13 17.0639614,12.6156671 17.0066708,12.1205279 L17,12.0044225 L17,2.9955775 C17,2.48417558 17.3859659,2.06408846 17.8832088,2.00668521 L17.9998075,2 L21.0001925,2 Z M3,4 L2,4 L2,11 L3,11 L3,4 Z M20,4 L19,4 L19,11 L20,11 L20,4 Z" id="Shape"></path>
        </g>
    </g>
</svg>