<?xml version="1.0" encoding="UTF-8"?>
<svg width="24px" height="25px" viewBox="0 0 24 25" version="1.1" xmlns="http://www.w3.org/2000/svg" xmlns:xlink="http://www.w3.org/1999/xlink">
    <title>Icon/product/arrow-backward-alt-new</title>
    <g id="Icon/product/arrow-backward-alt-new" stroke="none" stroke-width="1" fill="none" fill-rule="evenodd">
        <path d="M16.7056275,7.29101307 C17.0981242,7.67903049 17.0981242,8.30813103 16.7056275,8.69614846 L12.8578644,12.5 L16.7056275,16.3038515 C17.0981242,16.691869 17.0981242,17.3209695 16.7056275,17.7089869 C16.3131308,18.0970044 15.6767679,18.0970044 15.2842712,17.7089869 L10.0151519,12.5 L15.2842712,7.29101307 C15.6767679,6.90299564 16.3131308,6.90299564 16.7056275,7.29101307 Z M8.00505063,7 C8.56012477,7 9.01010127,7.44484126 9.01010127,7.99358076 L9.01010127,16.9358076 C9.01010127,17.4845471 8.56012477,17.9293884 8.00505063,17.9293884 C7.4499765,17.9293884 7,17.4845471 7,16.9358076 L7,7.99358076 C7,7.44484126 7.4499765,7 8.00505063,7 Z" id="Shape" fill="#8B96A0"></path>
    </g>
</svg>