<?xml version="1.0" encoding="UTF-8"?>
<svg width="24px" height="25px" viewBox="0 0 24 25" version="1.1" xmlns="http://www.w3.org/2000/svg" xmlns:xlink="http://www.w3.org/1999/xlink">
    <title>Icon/product/arrow-forward-alt-new</title>
    <g id="Icon/product/arrow-forward-alt-new" stroke="none" stroke-width="1" fill="none" fill-rule="evenodd">
        <path d="M7.29437252,17.7089869 C6.90187583,17.3209695 6.90187583,16.691869 7.29437252,16.3038515 L11.1421356,12.5 L7.29437252,8.69614846 C6.90187583,8.30813103 6.90187583,7.67903049 7.29437252,7.29101307 C7.6868692,6.90299564 8.32323207,6.90299564 8.71572875,7.29101307 L13.9848481,12.5 L8.71572875,17.7089869 C8.32323207,18.0970044 7.6868692,18.0970044 7.29437252,17.7089869 Z M15.9949494,18 C15.4398752,18 14.9898987,17.5551587 14.9898987,17.0064192 L14.9898987,8.06419237 C14.9898987,7.51545287 15.4398752,7.07061161 15.9949494,7.07061161 C16.5500235,7.07061161 17,7.51545287 17,8.06419237 L17,17.0064192 C17,17.5551587 16.5500235,18 15.9949494,18 Z" id="Shape" fill="#8B96A0"></path>
    </g>
</svg>