<?xml version="1.0" encoding="UTF-8"?>
<svg width="24px" height="24px" viewBox="0 0 24 24" version="1.1" xmlns="http://www.w3.org/2000/svg" xmlns:xlink="http://www.w3.org/1999/xlink">
    <title>Icon/product/arrow-capslock-new</title>
    <g id="Icon/product/arrow-capslock-new" stroke="none" stroke-width="1" fill="none" fill-rule="evenodd">
        <path d="M6.79101307,17.2056275 C7.17903049,17.5981242 7.80813103,17.5981242 8.19614846,17.2056275 L12,13.3578644 L15.8038515,17.2056275 C16.191869,17.5981242 16.8209695,17.5981242 17.2089869,17.2056275 C17.5970044,16.8131308 17.5970044,16.1767679 17.2089869,15.7842712 L12,10.5151519 L6.79101307,15.7842712 C6.40299564,16.1767679 6.40299564,16.8131308 6.79101307,17.2056275 Z M6.5,8.50505063 C6.5,9.06012477 6.94484126,9.51010127 7.49358076,9.51010127 L16.4358076,9.51010127 C16.9845471,9.51010127 17.4293884,9.06012477 17.4293884,8.50505063 C17.4293884,7.9499765 16.9845471,7.5 16.4358076,7.5 L7.49358076,7.5 C6.94484126,7.5 6.5,7.9499765 6.5,8.50505063 Z" id="Shape" fill="#8B96A0"></path>
    </g>
</svg>