<?xml version="1.0" encoding="UTF-8"?>
<svg width="24px" height="24px" viewBox="0 0 24 24" version="1.1" xmlns="http://www.w3.org/2000/svg" xmlns:xlink="http://www.w3.org/1999/xlink">
    <title>Icon/product/settings-cogwheel-new</title>
    <g id="Icon/product/settings-cogwheel-new" stroke="none" stroke-width="1" fill="none" fill-rule="evenodd">
        <g id="icons8-settings" transform="translate(1.949973, 2.000000)" fill="#8b96a0">
            <path d="M11.4231169,0 C12.3000626,0 13.0570735,0.58680239 13.2914161,1.4195025 L13.329132,1.57843215 L13.5420268,2.683 L13.6650574,2.73907524 C13.9813101,2.88932322 14.2864682,3.05760158 14.5789259,3.24320599 L14.8670907,3.43455965 L14.9590268,3.501 L16.003358,3.13842368 C16.7817095,2.87000643 17.6299201,3.12461354 18.1367001,3.7447079 L18.2333818,3.87355326 L18.3202276,4.01186488 L19.7418746,6.49517926 C20.1755634,7.25415415 20.0518736,8.20455121 19.4535052,8.82422026 L19.3357687,8.93640501 L18.4940268,9.673 L18.5103644,9.82092448 L18.5235871,9.99238188 L18.5330889,10.1624713 L18.5407455,10.5 L18.5330889,10.8375287 L18.5103644,11.1790755 L18.4940268,11.326 L19.3358443,12.0636613 C19.9520376,12.6038435 20.155713,13.4620138 19.8783836,14.2107416 L19.816484,14.3589013 L19.7416359,14.5033826 L18.3197326,16.9889992 C17.8821398,17.7516186 16.9960025,18.1206089 16.1579005,17.9061517 L16.0014405,17.8590574 L14.9590268,17.497 L14.8662998,17.5645114 C14.5821878,17.7620332 14.285065,17.9423549 13.9765234,18.1047178 L13.6642346,18.2610663 L13.5420268,18.316 L13.3289531,19.422491 C13.1721398,20.2299003 12.533688,20.8406341 11.7455627,20.973161 L11.5860404,20.9932068 L11.4231169,21 L8.57693673,21 C7.6999911,21 6.94297978,20.4131974 6.70863709,19.580497 L6.67092119,19.4215673 L6.45702685,18.316 L6.33499718,18.2609248 C6.01874463,18.110677 5.71358654,17.9423987 5.42112868,17.7567944 L5.1329637,17.5654408 L5.04002685,17.498 L3.99669568,17.8615762 C3.21834427,18.1299932 2.37013355,17.8753867 1.86335353,17.2552925 L1.7666718,17.1264471 L1.67982607,16.9881355 L0.258177644,14.5048188 C-0.175509218,13.7458441 -0.0518194922,12.7954482 0.546548522,12.1757796 L0.664284971,12.0635949 L1.50502685,11.326 L1.4896893,11.1790756 L1.47646655,11.0076181 L1.46696476,10.8375287 L1.45930812,10.5 L1.46696476,10.1624713 L1.4896893,9.82092443 L1.50502685,9.673 L0.664209238,8.9363387 C0.0479825291,8.39612721 -0.155648164,7.53650303 0.121785066,6.78726916 L0.183706184,6.63902161 L0.258577394,6.4944819 L1.68084016,4.01009764 C2.11868439,3.24887871 3.00450919,2.87958065 3.84222646,3.09387639 L3.99861357,3.14094263 L5.04002685,3.502 L5.13375373,3.4354888 C5.41786569,3.23796707 5.71498836,3.05764544 6.02352983,2.89528252 L6.33581861,2.73893393 L6.45702685,2.683 L6.67110014,1.5775088 C6.82791343,0.770099483 7.46636563,0.159365846 8.25449093,0.0268390298 L8.41401327,0.0067931741 L8.57693673,0 L11.4231169,0 Z M11.3730268,2 L8.62602685,2 L8.214179,4.13348324 L7.69407503,4.33170275 C7.11358488,4.55293635 6.57573701,4.84767904 6.09424226,5.20839758 L5.85825445,5.39421996 L5.42459007,5.75300553 L3.39102685,5.047 L2.01102685,7.457 L3.64153921,8.88639906 L3.55330185,9.43292283 C3.49094437,9.81915194 3.45930812,10.1662481 3.45930812,10.5 C3.45930812,10.750314 3.47710351,11.008134 3.51230827,11.2843398 L3.55330185,11.5670772 L3.64153921,12.1136009 L2.01102685,13.541 L3.39102685,15.954 L5.4244994,15.2488815 L5.85814205,15.6075425 C6.31872892,15.9884888 6.83950417,16.3055062 7.40668241,16.5513433 L7.69407462,16.6682966 L8.21417897,16.866516 L8.62602685,19 L11.3730268,19 L11.7858751,16.8665157 L12.3059796,16.6682965 C12.886469,16.4470637 13.4243164,16.1523213 13.9058107,15.7916028 L14.1417983,15.6057805 L14.5754626,15.2469946 L16.6080268,15.952 L17.9870268,13.541 L16.3585147,12.113601 L16.4467519,11.5670774 C16.5091093,11.1808484 16.5407455,10.8337521 16.5407455,10.5 C16.5407455,10.2496859 16.5229501,9.99186575 16.4877455,9.71565993 L16.4467519,9.4329226 L16.3585147,8.88639904 L17.9880268,7.458 L16.6080268,5.045 L14.5755533,5.7511187 L14.1419105,5.392457 C13.6813248,5.01151103 13.1605501,4.69449379 12.5933714,4.4486563 L12.3059789,4.33170278 L11.785875,4.13348338 L11.3730268,2 Z M10.0500268,6.5 C12.2596835,6.5 14.0500268,8.29531651 14.0500268,10.5083333 C14.0500268,12.7213502 12.2596835,14.5166667 10.0500268,14.5166667 C7.84037018,14.5166667 6.05002685,12.7213502 6.05002685,10.5083333 C6.05002685,8.29531651 7.84037018,6.5 10.0500268,6.5 Z M10.0500268,8.5 C8.94618351,8.5 8.05002685,9.39864599 8.05002685,10.5083333 C8.05002685,11.6180207 8.94618351,12.5166667 10.0500268,12.5166667 C11.1538702,12.5166667 12.0500268,11.6180207 12.0500268,10.5083333 C12.0500268,9.39864599 11.1538702,8.5 10.0500268,8.5 Z" id="Shape"></path>
        </g>
    </g>
</svg>