<?xml version="1.0" encoding="UTF-8"?>
<svg width="24px" height="24px" viewBox="0 0 24 24" version="1.1" xmlns="http://www.w3.org/2000/svg" xmlns:xlink="http://www.w3.org/1999/xlink">
    <title>Icon/product/forum</title>
    <g id="Icon/product/forum" stroke="none" stroke-width="1" fill="none" fill-rule="evenodd">
        <g id="Icon-24px" transform="translate(2.000000, 2.000000)" fill="#8B96A0">
            <path d="M19,4 L17,4 L17,13 L4,13 L4,15 C4,15.55 4.45,16 5,16 L16,16 L20,20 L20,5 C20,4.45 19.55,4 19,4 L19,4 Z M15,10 L15,1 C15,0.45 14.55,0 14,0 L1,0 C0.45,0 0,0.45 0,1 L0,15 L4,11 L14,11 C14.55,11 15,10.55 15,10 L15,10 Z" id="Shape"></path>
        </g>
    </g>
</svg>