<?xml version="1.0" encoding="UTF-8"?>
<svg width="12px" height="12px" viewBox="0 0 12 12" version="1.1" xmlns="http://www.w3.org/2000/svg" xmlns:xlink="http://www.w3.org/1999/xlink">
    <title>F5F16B98-A47C-437C-B3B2-3CDA03E98530</title>
    <g id="Agileboard" stroke="none" stroke-width="1" fill="none" fill-rule="evenodd">
        <g id="0110.-#VNCProjects--Agileboard-#04" transform="translate(-37.000000, -643.000000)" fill="#606B76">
            <g id="Group-5" transform="translate(29.000000, 302.000000)">
                <g id="Icon/product/comment-new" transform="translate(8.000000, 341.000000)">
                    <path d="M8.9921875,1.5078125 C10.0632852,1.5078125 10.9377269,2.34979674 10.9897398,3.40799233 L10.9921875,3.5078125 L10.9921875,7.5 C10.9921875,8.5710977 10.1502033,9.44553944 9.09200767,9.49755235 L8.9921875,9.5 L3,9.5 L1.86136589,10.6386341 C1.7675977,10.7324023 1.64042074,10.7850807 1.5078125,10.7850807 C1.25139458,10.7850807 1.04005892,10.5920606 1.01117637,10.3433913 L1.0078125,10.2850807 L1.0078125,3.5078125 C1.0078125,2.4367148 1.84979674,1.56227306 2.90799233,1.51026015 L3.0078125,1.5078125 L8.9921875,1.5078125 Z M8.9921875,2.5078125 L3.0078125,2.5078125 C2.4806316,2.5078125 2.04872994,2.9157514 2.01055537,3.43318133 L2.0078125,3.5078125 L2.0075,9.0775 L2.58578644,8.5 L8.9921875,8.5 C9.5193684,8.5 9.95127006,8.0920611 9.98944463,7.57463117 L9.9921875,7.5 L9.9921875,3.5078125 C9.9921875,2.9806316 9.5842486,2.54872994 9.06681867,2.51055537 L8.9921875,2.5078125 Z" id="Combined-Shape" transform="translate(6.000000, 6.146447) scale(-1, 1) translate(-6.000000, -6.146447) "></path>
                </g>
            </g>
        </g>
    </g>
</svg>