<?xml version="1.0" encoding="UTF-8"?>
<svg width="24px" height="24px" viewBox="0 0 24 24" version="1.1" xmlns="http://www.w3.org/2000/svg" xmlns:xlink="http://www.w3.org/1999/xlink">
    <title>Icon/product/contacts</title>
    <g id="Icon/product/contacts" stroke="none" stroke-width="1" fill="none" fill-rule="evenodd">
        <g id="Icon-24px" transform="translate(2.000000, 0.000000)" fill="#8B96A0">
            <path d="M18,0 L2,0 L2,2 L18,2 L18,0 L18,0 Z M2,24 L18,24 L18,22 L2,22 L2,24 L2,24 Z M18,4 L2,4 C0.9,4 0,4.9 0,6 L0,18 C0,19.1 0.9,20 2,20 L18,20 C19.1,20 20,19.1 20,18 L20,6 C20,4.9 19.1,4 18,4 L18,4 Z M10,6.75 C11.24,6.75 12.25,7.76 12.25,9 C12.25,10.24 11.24,11.25 10,11.25 C8.76,11.25 7.75,10.24 7.75,9 C7.75,7.76 8.76,6.75 10,6.75 L10,6.75 Z M15,17 L5,17 L5,15.5 C5,13.83 8.33,13 10,13 C11.67,13 15,13.83 15,15.5 L15,17 L15,17 Z" id="Shape"></path>
        </g>
    </g>
</svg>