<?xml version="1.0" encoding="UTF-8"?>
<svg width="24px" height="24px" viewBox="0 0 24 24" version="1.1" xmlns="http://www.w3.org/2000/svg" xmlns:xlink="http://www.w3.org/1999/xlink">
    <title>Icon/product/content_copy</title>
    <g id="Icon/product/content_copy" stroke="none" stroke-width="1" fill="none" fill-rule="evenodd">
        <g id="Icon-24px" transform="translate(2.000000, 1.000000)" fill="#8B96A0">
            <path d="M14,0 L2,0 C0.9,0 0,0.9 0,2 L0,16 L2,16 L2,2 L14,2 L14,0 L14,0 Z M17,4 L6,4 C4.9,4 4,4.9 4,6 L4,20 C4,21.1 4.9,22 6,22 L17,22 C18.1,22 19,21.1 19,20 L19,6 C19,4.9 18.1,4 17,4 L17,4 Z M17,20 L6,20 L6,6 L17,6 L17,20 L17,20 Z" id="Shape"></path>
        </g>
    </g>
</svg>