<?xml version="1.0" encoding="UTF-8"?>
<svg width="24px" height="24px" viewBox="0 0 24 24" version="1.1" xmlns="http://www.w3.org/2000/svg" xmlns:xlink="http://www.w3.org/1999/xlink">
    <title>Icon/product/keyword-new</title>
    <g id="Icon/product/keyword-new" stroke="none" stroke-width="1" fill="none" fill-rule="evenodd">
        <path d="M12,2 C17.5228475,2 22,6.4771525 22,12 C22,17.5228475 17.5228475,22 12,22 C6.4771525,22 2,17.5228475 2,12 C2,6.4771525 6.4771525,2 12,2 Z M19.9379871,13.0009551 L19,13 L19,15 C19,15.5522847 18.5522847,16 18,16 L17,16 L17,13 L11.8997409,13.0011864 C11.4360122,15.2828356 9.41853874,17 7,17 C6.51457077,17 6.04529855,16.9308237 5.60150357,16.8017912 C7.05950303,18.7434169 9.38300616,20 12,20 C16.0792885,20 19.445465,16.9468043 19.9379871,13.0009551 Z M7,9 C5.34314575,9 4,10.3431458 4,12 C4,13.6568542 5.34314575,15 7,15 C8.65685425,15 10,13.6568542 10,12 C10,10.3431458 8.65685425,9 7,9 Z M12,4 C9.38300616,4 7.05950303,5.25658305 5.5999406,7.19929914 C6.04529855,7.06917635 6.51457077,7 7,7 C9.4188915,7 11.4366008,8.71766536 11.8999437,10.999812 L19.9381123,11.0000487 C19.4460359,7.05371356 16.0796344,4 12,4 Z" id="Combined-Shape" fill="#8B96A0"></path>
    </g>
</svg>