<?xml version="1.0" encoding="UTF-8"?>
<svg width="24px" height="24px" viewBox="0 0 24 24" version="1.1" xmlns="http://www.w3.org/2000/svg" xmlns:xlink="http://www.w3.org/1999/xlink">
    <title>Icon/product/delete-new</title>
    <g id="Icon/product/delete-new" stroke="none" stroke-width="1" fill="none" fill-rule="evenodd">
        <path d="M18,7 L6,7 L6,18.2857143 C6,19.7746499 7.19131256,21 8.66666667,21 L15.3333333,21 C16.8086874,21 18,19.7746499 18,18.2857143 L18,7 Z M8,9 L16,9 L16,18.2857143 C16,18.6824929 15.6913126,19 15.3333333,19 L8.66666667,19 L8.57834889,18.9935231 C8.25938319,18.9465317 8,18.649428 8,18.2857143 L8,9 Z M13,3 C13.7404864,3 14.3869825,3.40242038 14.7327215,4.00049436 L18,4 C18.5522847,4 19,4.44771525 19,5 C19,5.55228475 18.5522847,6 18,6 L6,6 C5.44771525,6 5,5.55228475 5,5 C5,4.44771525 5.44771525,4 6,4 L9.26760632,3.99992752 C9.61342606,3.40216612 10.2597476,3 11,3 L13,3 Z" id="Combined-Shape" fill="#8b96a0"></path>
    </g>
</svg>