<?xml version="1.0" encoding="UTF-8"?>
<svg width="24px" height="24px" viewBox="0 0 24 24" version="1.1" xmlns="http://www.w3.org/2000/svg" xmlns:xlink="http://www.w3.org/1999/xlink">
    <title>Icon/product/control_point_duplicate</title>
    <g id="Icon/product/control_point_duplicate" stroke="none" stroke-width="1" fill="none" fill-rule="evenodd">
        <g id="Icon-24px" transform="translate(0.000000, 3.000000)" fill="#8b96a0">
            <path d="M16,5 L14,5 L14,8 L11,8 L11,10 L14,10 L14,13 L16,13 L16,10 L19,10 L19,8 L16,8 L16,5 Z M6.01,2.68 L6.01,0.52 C2.52,1.76 0,5.09 0,9 C0,12.91 2.52,16.24 6.01,17.48 L6.01,15.32 C3.64,14.2 2,11.79 2,9 C2,6.21 3.64,3.8 6.01,2.68 Z M15,0 C10.04,0 6,4.04 6,9 C6,13.96 10.04,18 15,18 C19.96,18 24,13.96 24,9 C24,4.04 19.96,0 15,0 L15,0 Z M8,9 C8,5.14 11.14,2 15,2 C18.86,2 22,5.14 22,9 C22,12.86 18.86,16 15,16 C11.14,16 8,12.86 8,9 Z" id="Shape"></path>
        </g>
    </g>
</svg>