<?xml version="1.0" encoding="UTF-8"?>
<svg width="24px" height="24px" viewBox="0 0 24 24" version="1.1" xmlns="http://www.w3.org/2000/svg" xmlns:xlink="http://www.w3.org/1999/xlink">
    <title>Icon/product/file-new</title>
    <g id="Icon/product/file-new" stroke="none" stroke-width="1" fill="none" fill-rule="evenodd">
        <path d="M13.5857864,2 C13.8510029,2 14.1053568,2.10535684 14.2928932,2.29289322 L19.7071068,7.70710678 C19.8946432,7.89464316 20,8.14899707 20,8.41421356 L20,20 C20,21.1045695 19.1045695,22 18,22 L6,22 C4.8954305,22 4,21.1045695 4,20 L4,4 C4,2.8954305 4.8954305,2 6,2 L13.5857864,2 Z M10.999,3.999 L6,4 L6,20 L18,20 L18,10 L14,10 C12.4023191,10 11.0963391,8.75108004 11.0050927,7.17627279 L11,7 L10.999,3.999 Z M17.172,8 L13.171,4 L12.999,3.999 L13,7 C13,7.51283584 13.3860402,7.93550716 13.8833789,7.99327227 L14,8 L17.172,8 Z" id="Combined-Shape" fill="#8B96A0"></path>
    </g>
</svg>