<?xml version="1.0" encoding="UTF-8"?>
<svg width="24px" height="24px" viewBox="0 0 24 24" version="1.1" xmlns="http://www.w3.org/2000/svg" xmlns:xlink="http://www.w3.org/1999/xlink">
    <title>Icon/product/close-new</title>
    <g id="Icon/product/close-new" stroke="none" stroke-width="1" fill="none" fill-rule="evenodd">
        <path d="M18.9497475,5.05025253 C19.3402718,5.44077682 19.3402718,6.0739418 18.9497475,6.46446609 L13.4142136,12 L18.9497475,17.5355339 C19.3402718,17.9260582 19.3402718,18.5592232 18.9497475,18.9497475 C18.5592232,19.3402718 17.9260582,19.3402718 17.5355339,18.9497475 L12,13.4142136 L6.46446609,18.9497475 C6.0739418,19.3402718 5.44077682,19.3402718 5.05025253,18.9497475 C4.65972824,18.5592232 4.65972824,17.9260582 5.05025253,17.5355339 L10.5857864,12 L5.05025253,6.46446609 C4.65972824,6.0739418 4.65972824,5.44077682 5.05025253,5.05025253 C5.44077682,4.65972824 6.0739418,4.65972824 6.46446609,5.05025253 L12,10.5857864 L17.5355339,5.05025253 C17.9260582,4.65972824 18.5592232,4.65972824 18.9497475,5.05025253 Z" id="Path" fill="#f24336"></path>
    </g>
</svg>