<?xml version="1.0" encoding="UTF-8"?>
<svg width="24px" height="24px" viewBox="0 0 24 24" version="1.1" xmlns="http://www.w3.org/2000/svg" xmlns:xlink="http://www.w3.org/1999/xlink">
    <title>Icon/product/favorites-small-filled-new</title>
    <g id="Icon/product/favorites-small-filled-new" stroke="none" stroke-width="1" fill="none" fill-rule="evenodd">
        <g id="Icon-24px" transform="translate(4.000000, 4.000000)" fill="#FFDF95">
            <path d="M5.33489264,4.89836235 L1.07449887,5.27691801 L0.964019364,5.29062867 C-0.0420836454,5.45229902 -0.342409648,6.5422772 0.456429623,7.26613059 L3.69211559,10.1976122 L2.72031084,14.5554381 L2.69927045,14.6657848 C2.53301794,15.718509 3.43161367,16.3572092 4.33782037,15.7851113 L7.99992678,13.4731642 L11.6620332,15.7851113 L11.7558834,15.8401117 C12.6618681,16.3305202 13.520005,15.633593 13.2795427,14.5554381 L12.3069757,10.1976122 L15.5434239,7.26613059 L15.624979,7.18708643 C16.347063,6.43745693 15.97924,5.3704407 14.9253547,5.27691801 L10.6641986,4.89836235 L8.99964723,0.790083611 C8.57236204,-0.264419227 7.42663389,-0.262302648 7.00020634,0.790083611 L5.33489264,4.89836235 Z" id="Shape"></path>
        </g>
    </g>
</svg>