<?xml version="1.0" encoding="UTF-8"?>
<svg width="24px" height="24px" viewBox="0 0 24 24" version="1.1" xmlns="http://www.w3.org/2000/svg" xmlns:xlink="http://www.w3.org/1999/xlink">
    <title>Icon/product/favorites-small-new</title>
    <g id="Icon/product/favorites-small-new" stroke="none" stroke-width="1" fill="none" fill-rule="evenodd">
        <path d="M11.0002063,4.79008361 C11.4088661,3.78154678 12.4781335,3.73758054 12.9425987,4.66377352 L12.9996472,4.79008361 L14.6641986,8.89836235 L18.9253547,9.27691801 C19.9353281,9.36654392 20.31522,10.350229 19.7095921,11.0918231 L19.624979,11.1870864 L19.5434239,11.2661306 L16.3069757,14.1976122 L17.2795427,18.5554381 C17.5103865,19.5904668 16.7287613,20.2741561 15.8643046,19.8933131 L15.7558834,19.8401117 L15.6620332,19.7851113 L11.9999268,17.4731642 L8.33782037,19.7851113 C7.46786194,20.3343253 6.60491778,19.7676677 6.68436376,18.7900734 L6.69927045,18.6657848 L6.72031084,18.5554381 L7.69211559,14.1976122 L4.45642962,11.2661306 C3.69087532,10.5724378 3.93479746,9.5424949 4.84196087,9.31557876 L4.96401936,9.29062867 L5.07449887,9.27691801 L9.33489264,8.89836235 L11.0002063,4.79008361 Z M13.2696045,10.7823452 L11.999,7.647 L10.7292768,10.7823445 L7.242,11.091 L9.89750027,13.4969103 L9.134,16.916 L11.9999268,15.1079494 L14.864,16.916 L14.1013915,13.4969069 L16.756,11.092 L13.2696045,10.7823452 Z" id="Shape" fill="#8B96A0"></path>
    </g>
</svg>