<?xml version="1.0" encoding="UTF-8"?>
<svg width="24px" height="24px" viewBox="0 0 24 24" version="1.1" xmlns="http://www.w3.org/2000/svg" xmlns:xlink="http://www.w3.org/1999/xlink">
    <title>Icon/product/rss-outline</title>
    <g id="Icon/product/rss-outline" stroke="none" stroke-width="1" fill="none" fill-rule="evenodd">
        <path d="M19,2 C20.6568542,2 22,3.34314575 22,5 L22,5 L22,19 C22,20.6568542 20.6568542,22 19,22 L19,22 L5,22 C3.34314575,22 2,20.6568542 2,19 L2,19 L2,5 C2,3.34314575 3.34314575,2 5,2 L5,2 Z M19,4 L5,4 C4.44771525,4 4,4.44771525 4,5 L4,5 L4,19 C4,19.5522847 4.44771525,20 5,20 L5,20 L19,20 C19.5522847,20 20,19.5522847 20,19 L20,19 L20,5 C20,4.44771525 19.5522847,4 19,4 L19,4 Z M6,6 C9.40625,6.09375 12.234375,7.265625 14.484375,9.515625 C16.734375,11.765625 17.90625,14.59375 18,18 L15.984375,18 C15.921875,15.15625 14.953125,12.796875 13.078125,10.921875 C11.2846467,9.12839674 9.0479974,8.16407727 6.36817698,8.02891659 L6,8.015625 L6,6 Z M6,9.984375 C8.28125,10.046875 10.171875,10.828125 11.671875,12.328125 C13.171875,13.828125 13.953125,15.71875 14.015625,18 L12,18 C11.96875,16.3125 11.3828125,14.8984375 10.2421875,13.7578125 C9.17285156,12.6884766 7.8631897,12.1066589 6.3132019,12.0123596 L6,12 L6,9.984375 Z M7.5,15 C7.9375,15 8.296875,15.140625 8.578125,15.421875 C8.859375,15.703125 9,16.0625 9,16.5 C9,16.9375 8.859375,17.296875 8.578125,17.578125 C8.296875,17.859375 7.9375,18 7.5,18 C7.0625,18 6.703125,17.859375 6.421875,17.578125 C6.140625,17.296875 6,16.9375 6,16.5 C6,16.0625 6.140625,15.703125 6.421875,15.421875 C6.703125,15.140625 7.0625,15 7.5,15 Z" id="Combined-Shape" fill="#337cbd"></path>
    </g>
</svg>