<?xml version="1.0" encoding="UTF-8"?>
<svg width="24px" height="24px" viewBox="0 0 24 24" version="1.1" xmlns="http://www.w3.org/2000/svg" xmlns:xlink="http://www.w3.org/1999/xlink">
    <title>Icon/product/portfoilo</title>
    <g id="Icon/product/portfoilo" stroke="none" stroke-width="1" fill="none" fill-rule="evenodd">
        <path d="M18.984375,21.015625 C19.453125,20.984375 19.8671875,20.8359375 20.2265625,20.5703125 C20.5859375,20.3046875 20.828125,19.953125 20.953125,19.515625 L20.953125,19.515625 L23.203125,10.984375 L6.140625,10.984375 L3.984375,19 L3.984375,9.015625 L21,9.015625 C21,8.453125 20.8046875,7.9765625 20.4140625,7.5859375 C20.0234375,7.1953125 19.546875,7 18.984375,7 L18.984375,7 L12,7 L9.984375,4.984375 L3.984375,4.984375 C3.421875,5.015625 2.953125,5.21875 2.578125,5.59375 C2.203125,5.96875 2.015625,6.4375 2.015625,7 L2.015625,7 L2.015625,19 C2.015625,19.5625 2.203125,20.03125 2.578125,20.40625 C2.953125,20.78125 3.421875,20.984375 3.984375,21.015625 L3.984375,21.015625 L18.984375,21.015625 Z" id="ï¯" fill="#ffdf95"></path>
    </g>
</svg>