<?xml version="1.0" encoding="UTF-8"?>
<svg width="24px" height="24px" viewBox="0 0 24 24" version="1.1" xmlns="http://www.w3.org/2000/svg" xmlns:xlink="http://www.w3.org/1999/xlink">
    <title>Icon/product/hand-new</title>
    <g id="Icon/product/hand-new" stroke="none" stroke-width="1" fill="none" fill-rule="evenodd">
        <path d="M12.9357547,0.7 C13.171359,0.7 13.4073695,0.737264808 13.6349118,0.808055758 C13.8606925,0.878298647 14.0714225,0.978052498 14.2549897,1.10365778 C14.578896,1.32239972 14.8421931,1.61704611 15.0272303,1.96752317 L15.112,2.146 L15.151711,2.13556231 L15.3255436,2.1018836 L15.5020568,2.08154857 L15.6809217,2.0747315 C15.9201621,2.0747315 16.1562388,2.1118116 16.3843748,2.18278726 C16.6101555,2.25303014 16.8208855,2.352784 17.0044527,2.47838928 C17.3823434,2.7335882 17.6777382,3.09210153 17.8595628,3.51472122 C17.9589717,3.74534988 18.0194878,3.99066309 18.0397178,4.24472995 L18.047315,4.43682874 L18.047,4.854 L18.2267127,4.83254222 L18.4303847,4.82419449 C18.6696251,4.82419449 18.9057017,4.86127459 19.1338378,4.93225025 C19.3596185,5.00249314 19.5703485,5.10224699 19.7539157,5.22785227 C20.1318064,5.4830512 20.4272012,5.84156452 20.6090258,6.26418422 C20.7084347,6.49481288 20.7689508,6.74012608 20.7891808,6.99419295 L20.796778,7.18629174 L20.796778,14.747315 C20.796778,15.8720121 20.6687549,16.9138554 20.4165893,17.8684235 C20.1588765,18.8059646 19.7798309,19.6403137 19.2864092,20.3535275 C18.9526887,20.8315596 18.5746481,21.2534799 18.153954,21.6159926 C17.5930893,22.1005797 16.9587888,22.4838736 16.2637286,22.7591895 C15.3526251,23.1191865 14.3497278,23.3 13.2837336,23.3 C12.1513538,23.3 11.1584529,23.1586304 10.2883435,22.8776559 C9.45327204,22.6109577 8.7253402,22.2084409 8.11304215,21.6849461 C7.7280282,21.3530375 7.38821386,20.9803744 7.09960545,20.5772264 C6.81490724,20.1853477 6.56740652,19.7553832 6.34662505,19.2809322 L6.18588508,18.9166526 L6.1670144,18.8715085 L3.90290288,12.6849415 C3.76989299,12.3203959 3.7,11.9614539 3.7,11.6069127 C3.7,11.3159712 3.74991924,11.0286311 3.85227836,10.7411773 C3.95928693,10.4558211 4.13102573,10.1918048 4.35064867,9.97708882 C4.49269607,9.83504142 4.66386242,9.70666666 4.84783865,9.60224918 C5.21629126,9.39170484 5.63534871,9.28347979 6.05780121,9.28347979 C6.36064654,9.28347979 6.66026427,9.34167001 6.94597143,9.45496768 C7.18061436,9.54801574 7.39776369,9.67903527 7.59017813,9.84516379 L7.72973803,9.97629839 L7.819,10.075 L7.81989846,5.12849053 C7.81989846,5.00887031 7.82916848,4.89004105 7.84731046,4.77259983 L7.88112765,4.59755368 L7.92795421,4.42503743 C7.9981971,4.19925671 8.09795096,3.9885267 8.22355624,3.80495956 C8.47875516,3.42706884 8.83726849,3.13167406 9.25988818,2.94984939 C9.54817401,2.82558825 9.85940443,2.76209725 10.1819957,2.76209725 L10.360848,2.76902894 L10.5386049,2.78974076 L10.59,2.799 L10.6010695,2.71050259 L10.6163333,2.62269126 L10.6348867,2.53545644 L10.6817132,2.36294018 C10.7519561,2.13715946 10.85171,1.92642945 10.9773153,1.74286231 C11.2325142,1.3649716 11.5910275,1.06957682 12.0136472,0.887752139 C12.301933,0.763491007 12.6131635,0.7 12.9357547,0.7 Z M12.9357547,2.6747315 C12.8893253,2.6747315 12.8532081,2.67981047 12.8244133,2.68940874 C12.7766688,2.70532358 12.7448271,2.72010722 12.7244029,2.73418477 C12.6548609,2.78425499 12.6041117,2.84528255 12.5710628,2.92416892 C12.5588603,2.94992974 12.5509412,2.97709494 12.5470176,3.00937565 L12.544093,3.06209725 L12.544093,11.3534466 C12.544093,11.8941433 12.1050004,12.3370211 11.5567272,12.3494044 C11.0518289,12.3494044 10.6332478,11.9668874 10.5760265,11.4768962 L10.5693615,11.3620387 L10.5693615,5.13278657 C10.5693615,5.08635712 10.5642825,5.05023997 10.5546842,5.02144517 C10.5387694,4.97370066 10.5239857,4.94185897 10.5099082,4.92143475 C10.459838,4.85189278 10.3988104,4.80114354 10.319924,4.7680946 C10.2812828,4.74979086 10.2394817,4.74112478 10.1819957,4.74112478 C10.1355663,4.74112478 10.0994491,4.74620375 10.0706543,4.75580202 L9.99504006,4.78624939 C9.98552864,4.79111456 9.97745196,4.79588554 9.97064389,4.80057805 C9.90110191,4.85064827 9.85035268,4.91167584 9.81730374,4.9905622 C9.80510124,5.01632303 9.79718216,5.04348822 9.7932586,5.07576894 L9.79033392,5.12849053 L9.78731877,14.8412938 L9.77130629,14.9494665 C9.67749112,15.4060336 9.27280407,15.7432728 8.80296817,15.7432728 C8.39725724,15.7432728 8.03620585,15.4893158 7.89863966,15.1508484 L7.86425319,15.0469422 L6.36084583,11.4188741 C6.34873087,11.3946442 6.33718518,11.378321 6.32252916,11.3636649 C6.30069082,11.3418266 6.28022576,11.3259662 6.25816294,11.3138929 C6.20553989,11.2841495 6.13615547,11.2668034 6.06209725,11.2668034 C5.98338308,11.2668034 5.90176397,11.2885685 5.82340569,11.3332769 C5.77695678,11.3586127 5.75055883,11.3818247 5.72421563,11.4160708 C5.71184009,11.432159 5.70339183,11.4466311 5.69656555,11.465911 L5.68725443,11.4992399 C5.67919647,11.5314717 5.6747315,11.5671915 5.6747315,11.6069127 C5.6747315,11.6853056 5.68985006,11.7835204 5.72004608,11.8914101 L5.7552664,12.002149 L8.01420957,18.1755266 C8.2383714,18.7100664 8.49446629,19.1645589 8.79439498,19.5501833 C9.12875732,19.9776592 9.50859299,20.3162724 9.96637399,20.5833181 C10.3079267,20.7797109 10.681851,20.9365179 11.1018744,21.0531975 C11.7115022,21.226772 12.4328041,21.3166764 13.2751416,21.3166764 C13.9731751,21.3166764 14.6218147,21.2198953 15.2091988,21.0309528 C15.7905972,20.8398639 16.307753,20.560539 16.7589577,20.1939352 C17.0659036,19.9442859 17.3391519,19.6569215 17.5795547,19.3283849 C17.909835,18.8839336 18.1784306,18.3569165 18.3863577,17.7412965 C18.641519,16.9758126 18.7871211,16.0998354 18.8135341,15.1197251 L18.8178331,14.747315 L18.8178331,7.19488381 C18.8178331,7.14865787 18.8127274,7.11250503 18.8030732,7.08354242 C18.7871584,7.03579791 18.7723747,7.00395622 18.7582972,6.983532 C18.7082269,6.91399002 18.6471994,6.86324079 18.568313,6.83019185 C18.5296718,6.8118881 18.4878707,6.80322203 18.4303847,6.80322203 C18.3839552,6.80322203 18.3478381,6.808301 18.3190433,6.81789927 C18.2712988,6.8338141 18.2394571,6.84859775 18.2190329,6.8626753 C18.1494909,6.91274552 18.0987417,6.97377308 18.0628995,7.05839763 L18.0430189,7.11325913 L18.0430189,11.997852 C18.0430189,12.5385487 17.6039264,12.9814265 17.0556532,12.9938098 C16.7920753,12.9938098 16.5431327,12.8847957 16.3616945,12.7032966 C16.2036664,12.550536 16.1022802,12.3511007 16.0728745,12.1341714 L16.0639914,12.002148 L16.0666393,7.07777555 L16.0682874,7.06600273 L16.0682874,4.44542082 C16.0682874,4.39899137 16.0632085,4.36287422 16.0536102,4.33407942 C16.0376954,4.28633491 16.0229117,4.25449322 16.0088342,4.234069 C15.958764,4.16452703 15.8977364,4.11377779 15.81885,4.08072885 C15.7802088,4.06242511 15.7384077,4.05375903 15.6809217,4.05375903 C15.6344922,4.05375903 15.5983751,4.05883801 15.5695803,4.06843627 C15.5218358,4.08435111 15.4899941,4.09913475 15.4695699,4.1132123 C15.4000279,4.16328253 15.3492787,4.22431009 15.3134365,4.30893463 L15.2935559,4.36379613 L15.2935559,11.3104862 C15.2935559,11.8547198 14.853776,12.302148 14.3104862,12.302148 C13.7993804,12.302148 13.3787116,11.9212702 13.3212237,11.4299911 L13.3145284,11.3147823 L13.3153804,4.38472115 L13.3231205,4.26069127 L13.3231205,3.06639328 C13.3231205,3.01996384 13.3180415,2.98384669 13.3084432,2.95505189 C13.2925284,2.90730738 13.2777448,2.87546569 13.2636672,2.85504147 C13.213597,2.78549949 13.1525694,2.73475026 13.0736831,2.70170132 C13.0350418,2.68339758 12.9932407,2.6747315 12.9357547,2.6747315 Z" id="Hand-right-outline-01" fill="#8B96A0"></path>
    </g>
</svg>