<?xml version="1.0" encoding="UTF-8"?>
<svg width="24px" height="24px" viewBox="0 0 24 24" version="1.1" xmlns="http://www.w3.org/2000/svg" xmlns:xlink="http://www.w3.org/1999/xlink">
    <title>Icon/product/history</title>
    <g id="Icon/product/history" stroke="none" stroke-width="1" fill="none" fill-rule="evenodd">
        <path d="M13,3 C17.97,3 22,7.03 22,12 C22,16.97 17.97,21 13,21 C10.51,21 8.27,19.99 6.64,18.36 L6.64,18.36 L8.06,16.94 C9.32,18.21 11.07,19 13,19 C16.87,19 20,15.87 20,12 C20,8.13 16.87,5 13,5 C9.13,5 6,8.13 6,12 L6,12 L8.00104344,12 C8.55733967,12 8.68493638,12.3142838 8.29628571,12.7019724 L8.29628571,12.7019724 L5.66371429,15.3280276 C5.27701202,15.7137727 4.64711288,15.7115821 4.26114707,15.3187936 L4.26114707,15.3187936 L1.69885293,12.7112064 C1.31073456,12.3162273 1.44724809,12 1.99895656,12 L1.99895656,12 L4,12 C4,7.03 8.03,3 13,3 Z M12.75,8 C13.1642136,8 13.5,8.33578644 13.5,8.75 L13.5,12.033 L16.430608,13.7254809 C16.7893274,13.9325877 16.9122338,14.3912805 16.705127,14.75 C16.4980202,15.1087195 16.0393274,15.2316258 15.680608,15.0245191 L12.017,12.909 L12,12.9087067 L12,8.75 C12,8.33578644 12.3357864,8 12.75,8 Z" id="Combined-Shape" fill="#8B96A0"></path>
    </g>
</svg>