<?xml version="1.0" encoding="UTF-8"?>
<svg width="24px" height="24px" viewBox="0 0 24 24" version="1.1" xmlns="http://www.w3.org/2000/svg" xmlns:xlink="http://www.w3.org/1999/xlink">
    <title>Icon/product/import-new</title>
    <g id="Icon/product/import-new" stroke="none" stroke-width="1" fill="none" fill-rule="evenodd">
        <path d="M19,12 C19.5522847,12 20,12.4477153 20,13 L20,16 C20,18.1421954 18.3160315,19.8910789 16.1996403,19.9951047 L16,20 L8,20 C5.85780461,20 4.10892112,18.3160315 4.00489531,16.1996403 L4,16 L4,13 C4,12.4477153 4.44771525,12 5,12 C5.55228475,12 6,12.4477153 6,13 L6,16.1176471 C6,17.1099876 6.71389307,17.9229789 7.61939545,17.994837 L7.75,18 L16.25,18 C17.1725666,18 17.9283945,17.232115 17.9952,16.2581293 L18,16.1176471 L18,13 C18,12.4477153 18.4477153,12 19,12 Z M12,4 L16,8 L13,8 L13,15 C13,15.5522847 12.5522847,16 12,16 C11.4477153,16 11,15.5522847 11,15 L11,8 L8,8 L12,4 Z" id="Shape" fill="#8B96A0"></path>
    </g>
</svg>