<?xml version="1.0" encoding="UTF-8"?>
<svg width="24px" height="24px" viewBox="0 0 24 24" version="1.1" xmlns="http://www.w3.org/2000/svg" xmlns:xlink="http://www.w3.org/1999/xlink">
    <title>Icon/product/message</title>
    <g id="Icon/product/message" stroke="none" stroke-width="1" fill="none" fill-rule="evenodd">
        <g id="Icon-24px" transform="translate(2.000000, 2.000000)" fill="#8B96A0">
            <path d="M18,0 L2,0 C0.9,0 0.01,0.9 0.01,2 L0,20 L4,16 L18,16 C19.1,16 20,15.1 20,14 L20,2 C20,0.9 19.1,0 18,0 L18,0 Z M16,12 L4,12 L4,10 L16,10 L16,12 L16,12 Z M16,9 L4,9 L4,7 L16,7 L16,9 L16,9 Z M16,6 L4,6 L4,4 L16,4 L16,6 L16,6 Z" id="Shape"></path>
        </g>
    </g>
</svg>