<?xml version="1.0" encoding="UTF-8"?>
<svg width="24px" height="24px" viewBox="0 0 24 24" version="1.1" xmlns="http://www.w3.org/2000/svg" xmlns:xlink="http://www.w3.org/1999/xlink">
    <title>Icon/product/broken-image</title>
    <g id="Icon/product/broken-image" stroke="none" stroke-width="1" fill="none" fill-rule="evenodd">
        <g id="Icon-24px" fill="#46ba93">
            <path d="M0,0 L24,0 L24,24 L0,24 L0,0 Z M0,0 L24,0 L24,24 L0,24 L0,0 Z M21,19 C21,20.1 20.1,21 19,21 L5,21 C3.9,21 3,20.1 3,19 L3,5 C3,3.9 3.9,3 5,3 L19,3 C20.1,3 21,3.9 21,5 L21,19 Z" id="Shape"></path>
            <path d="M21,5 L21,11.59 L18,8.58 L14,12.59 L10,8.59 L6,12.59 L3,9.58 L3,5 C3,3.9 3.9,3 5,3 L19,3 C20.1,3 21,3.9 21,5 L21,5 Z M18,11.42 L21,14.43 L21,19 C21,20.1 20.1,21 19,21 L5,21 C3.9,21 3,20.1 3,19 L3,12.42 L6,15.41 L10,11.41 L14,15.41 L18,11.42 L18,11.42 Z" id="Shape"></path>
        </g>
    </g>
</svg>