<?xml version="1.0" encoding="UTF-8"?>
<svg width="24px" height="24px" viewBox="0 0 24 24" version="1.1" xmlns="http://www.w3.org/2000/svg" xmlns:xlink="http://www.w3.org/1999/xlink">
    <title>Icon/product/reply-filled-new</title>
    <g id="Icon/product/reply-filled-new" stroke="none" stroke-width="1" fill="none" fill-rule="evenodd">
        <path d="M12.4973267,8.40707868 L12.2705232,8.4499697 C6.82429206,9.53032948 3.52539392,12.9439686 2.05725936,17.9843453 C1.82108662,18.7951698 2.33842256,19.5645562 3.18728728,19.5798322 C3.6552771,19.588254 4.12313187,19.3581995 4.47841408,18.9953264 L4.70462204,18.7708644 C6.60875651,16.9358589 8.99510107,15.9870353 12.276602,15.8047811 L12.4973267,15.7940787 L12.4973267,17.5976344 C12.4973267,19.0330002 13.8603364,19.6260111 14.9133818,18.6687636 L20.626566,13.4753204 C21.4777262,12.7015922 21.474586,11.4144552 20.6255794,10.6447482 L14.9123952,5.46519129 C13.8560717,4.50753132 12.4973267,5.10951898 12.4973267,6.53098027 L12.4973267,8.40707868 Z" id="Path" fill="#46ba93"></path>
    </g>
</svg>