<?xml version="1.0" encoding="UTF-8"?>
<svg width="24px" height="24px" viewBox="0 0 24 24" version="1.1" xmlns="http://www.w3.org/2000/svg" xmlns:xlink="http://www.w3.org/1999/xlink">
    <title>Icon/product/work</title>
    <g id="Icon/product/work" stroke="none" stroke-width="1" fill="none" fill-rule="evenodd">
        <g id="Icon-24px" transform="translate(2.000000, 2.000000)" fill="#ffdf95">
            <path d="M18,4 L14,4 L14,2 C14,0.89 13.11,0 12,0 L8,0 C6.89,0 6,0.89 6,2 L6,4 L2,4 C0.89,4 0.01,4.89 0.01,6 L0,17 C0,18.11 0.89,19 2,19 L18,19 C19.11,19 20,18.11 20,17 L20,6 C20,4.89 19.11,4 18,4 L18,4 Z M12,4 L8,4 L8,2 L12,2 L12,4 L12,4 Z" id="Shape"></path>
        </g>
    </g>
</svg>