<?xml version="1.0" encoding="UTF-8"?>
<svg width="24px" height="24px" viewBox="0 0 24 24" version="1.1" xmlns="http://www.w3.org/2000/svg" xmlns:xlink="http://www.w3.org/1999/xlink">
    <title>Icon/product/phone-call-hang-new</title>
    <g id="Icon/product/phone-call-hang-new" stroke="none" stroke-width="1" fill="none" fill-rule="evenodd">
        <g id="Icon-24px" transform="translate(1.000000, 6.000000)" fill="#8B96A0">
            <path d="M0.718118899,4.12779989 C6.39726421,-1.3759333 15.6027358,-1.3759333 21.2818811,4.12779989 C22.1977429,5.01537339 22.237563,6.43435594 21.4013413,7.36813892 L21.2818811,7.49237006 L19.4124482,9.30406169 C18.4984787,10.1898014 17.0384269,10.2300623 16.0748135,9.42484437 L15.9406442,9.30406169 L15.7097621,9.09016092 C15.2395977,8.67392072 14.7188856,8.32691761 14.1449865,8.04679724 C13.3849238,7.66249118 12.8796751,6.92460021 12.8293886,6.1129924 L12.8256496,5.93805011 L12.8236986,4.92785585 L12.7526019,4.91379893 C11.7278494,4.73245394 10.6764706,4.71322365 9.64364868,4.85587652 L9.25729854,4.91695917 L9.18531475,4.93193216 L9.18475643,5.96425715 C9.17027171,6.73631033 8.77812057,7.43656001 8.1357651,7.87837694 L7.98314574,7.97566218 L7.83299366,8.0577341 C7.27796869,8.32848002 6.75995294,8.67414392 6.29017374,9.09019281 L5.95452868,9.39993074 C5.03728896,10.1912309 3.6506817,10.1999265 2.72312621,9.42601756 L2.58755183,9.30406169 L0.718118899,7.49237006 C-0.239372966,6.56445231 -0.239372966,5.05571764 0.718118899,4.12779989 Z M19.8900218,5.56401981 C14.9865413,0.811993396 7.01345875,0.811993396 2.1099782,5.56401981 C1.98428883,5.68582701 1.9663332,5.85598083 2.05611133,5.99160135 L2.1099782,6.05615013 L3.97941113,7.86784176 C4.13195512,8.01567411 4.38807229,8.04040391 4.54445861,7.96328676 L4.60478263,7.92406299 L4.66749653,7.86784176 C5.26063943,7.2930193 5.92456413,6.80717133 6.58911166,6.4485679 L6.96741533,6.25278908 C7.08366763,6.18425182 7.15175599,6.09579061 7.17534824,6.01853231 L7.18475672,5.96317547 L7.18619439,3.30495121 L8.90638203,2.94798543 C10.1548638,2.7254772 11.4325909,2.70216173 12.7134794,2.88368008 L13.1405235,2.95178038 L14.8205274,3.28394333 L14.8252823,5.97637387 C14.8235625,6.06611172 14.8998395,6.18734817 15.0222628,6.24946968 C15.6529921,6.5573289 16.2365263,6.93027198 16.7929478,7.38737179 L17.0689922,7.62302305 L17.3325035,7.86784176 C17.4916022,8.02202637 17.7598822,8.04129945 17.9462762,7.92566099 L18.0205889,7.86784176 L19.8900218,6.05615013 C20.0366594,5.91404173 20.0366594,5.70612821 19.8900218,5.56401981 Z" id="Shape"></path>
        </g>
    </g>
</svg>