<?xml version="1.0" encoding="UTF-8"?>
<svg width="24px" height="24px" viewBox="0 0 24 24" version="1.1" xmlns="http://www.w3.org/2000/svg" xmlns:xlink="http://www.w3.org/1999/xlink">
    <title>Icon/product/extension</title>
    <g id="Icon/product/extension" stroke="none" stroke-width="1" fill="none" fill-rule="evenodd">
        <g id="Icon-24px" transform="translate(2.000000, 1.000000)" fill="#46ba93">
            <path d="M18.5,10 L17,10 L17,6 C17,4.9 16.1,4 15,4 L11,4 L11,2.5 C11,1.12 9.88,0 8.5,0 C7.12,0 6,1.12 6,2.5 L6,4 L2,4 C0.9,4 0.01,4.9 0.01,6 L0.01,9.8 L1.5,9.8 C2.99,9.8 4.2,11.01 4.2,12.5 C4.2,13.99 2.99,15.2 1.5,15.2 L0,15.2 L0,19 C0,20.1 0.9,21 2,21 L5.8,21 L5.8,19.5 C5.8,18.01 7.01,16.8 8.5,16.8 C9.99,16.8 11.2,18.01 11.2,19.5 L11.2,21 L15,21 C16.1,21 17,20.1 17,19 L17,15 L18.5,15 C19.88,15 21,13.88 21,12.5 C21,11.12 19.88,10 18.5,10 L18.5,10 Z" id="Shape"></path>
        </g>
    </g>
</svg>