<?xml version="1.0" encoding="UTF-8"?>
<svg width="24px" height="24px" viewBox="0 0 24 24" version="1.1" xmlns="http://www.w3.org/2000/svg" xmlns:xlink="http://www.w3.org/1999/xlink">
    <title>Icon/product/whatshot</title>
    <g id="Icon/product/whatshot" stroke="none" stroke-width="1" fill="none" fill-rule="evenodd">
        <g id="Icon-24px" transform="translate(4.000000, 0.669999)" fill="#8B96A0">
            <path d="M10.24,4.80000119 C10.24,6.86000119 8.89,8.53000119 6.83,8.53000119 C4.76,8.53000119 3.2,6.86000119 3.2,4.80000119 L3.23,4.44000119 C1.21,6.84000119 0,9.95000119 0,13.3300012 C0,17.7500012 3.58,21.3300012 8,21.3300012 C12.42,21.3300012 16,17.7500012 16,13.3300012 C16,7.94000119 13.41,3.13000119 9.5,1.19375649e-06 C10.24,2.65000119 10.24,2.65000119 10.24,4.80000119 Z M7.71,18.3300012 C5.93,18.3300012 4.49,16.9300012 4.49,15.1900012 C4.49,13.5700012 5.54,12.4300012 7.3,12.0700012 C9.07,11.7100012 10.9,10.8600012 11.92,9.49000119 C12.31,10.7800012 12.51,12.1400012 12.51,13.5300012 C12.51,16.1800012 10.36,18.3300012 7.71,18.3300012 L7.71,18.3300012 Z" id="Shape"></path>
        </g>
    </g>
</svg>