<?xml version="1.0" encoding="UTF-8"?>
<svg width="24px" height="24px" viewBox="0 0 24 24" version="1.1" xmlns="http://www.w3.org/2000/svg" xmlns:xlink="http://www.w3.org/1999/xlink">
    <title>Icon/product/toys</title>
    <g id="Icon/product/toys" stroke="none" stroke-width="1" fill="none" fill-rule="evenodd">
        <g id="Icon-24px" transform="translate(1.000000, 1.000000)" fill="#fcc647">
            <path d="M11,11 C11,8 13.5,5.5 16.5,5.5 C19.5,5.5 22,8 22,11 L11,11 L11,11 Z M11,11 C11,14 8.5,16.5 5.5,16.5 C2.5,16.5 0,14 0,11 L11,11 L11,11 Z M11,11 C8,11 5.5,8.5 5.5,5.5 C5.5,2.5 8,0 11,0 L11,11 L11,11 Z M11,11 C14,11 16.5,13.5 16.5,16.5 C16.5,19.5 14,22 11,22 L11,11 L11,11 Z" id="Shape"></path>
            <path fill="#aedb6a" d="M11,11 C8,11 5.5,8.5 5.5,5.5 C5.5,2.5 8,0 11,0 L11,11 L11,11 Z" id="Shape"></path>
            <path fill="#e65747" d="M11,11 C11,14 8.5,16.5 5.5,16.5 C2.5,16.5 0,14 0,11 L11,11 L11,11 Z" id="Shape"></path>
             <path fill="#34a0f7" d="M11,11 C11,8 13.5,5.5 16.5,5.5 C19.5,5.5 22,8 22,11 L11,11 L11,11 Z" id="Shape"></path>
        </g>
    </g>
</svg>