<?xml version="1.0" encoding="UTF-8"?>
<svg width="24px" height="24px" viewBox="0 0 24 24" version="1.1" xmlns="http://www.w3.org/2000/svg" xmlns:xlink="http://www.w3.org/1999/xlink">
    <title>Icon/product/chats-new</title>
    <g id="Icon/product/chats-new" stroke="none" stroke-width="1" fill="none" fill-rule="evenodd">
        <path d="M17.984375,3.015625 C20.1265704,3.015625 21.8754539,4.69959347 21.9794797,6.81598466 L21.984375,7.015625 L21.984375,15 C21.984375,17.1421954 20.3004065,18.8910789 18.1840153,18.9951047 L17.984375,19 L6,19 L3.72273178,21.2772682 C3.5351954,21.4648046 3.28084149,21.5701614 3.015625,21.5701614 C2.50278916,21.5701614 2.08011784,21.1841212 2.02235273,20.6867826 L2.015625,20.5701614 L2.015625,7.015625 C2.015625,4.87342961 3.69959347,3.12454612 5.81598466,3.02052031 L6.015625,3.015625 L17.984375,3.015625 Z M17.984375,5.015625 L6.015625,5.015625 C4.9612632,5.015625 4.09745988,5.83150279 4.02111074,6.86636266 L4.015625,7.015625 L4.015,18.155 L5.17157288,17 L17.984375,17 C19.0387368,17 19.9025401,16.1841222 19.9788893,15.1492623 L19.984375,15 L19.984375,7.015625 C19.984375,5.9612632 19.1684972,5.09745988 18.1336373,5.02111074 L17.984375,5.015625 Z M13.0078125,13 C13.564412,13 14.015625,13.451213 14.015625,14.0078125 C14.015625,14.564412 13.564412,15.015625 13.0078125,15.015625 L7.0078125,15.015625 C6.45121303,15.015625 6,14.564412 6,14.0078125 C6,13.451213 6.45121303,13 7.0078125,13 L13.0078125,13 Z M16.9921875,10 C17.548787,10 18,10.451213 18,11.0078125 C18,11.564412 17.548787,12.015625 16.9921875,12.015625 L7.0078125,12.015625 C6.45121303,12.015625 6,11.564412 6,11.0078125 C6,10.451213 6.45121303,10 7.0078125,10 L16.9921875,10 Z M16.9921875,7 C17.548787,7 18,7.45121303 18,8.0078125 C18,8.56441197 17.548787,9.015625 16.9921875,9.015625 L7.0078125,9.015625 C6.45121303,9.015625 6,8.56441197 6,8.0078125 C6,7.45121303 6.45121303,7 7.0078125,7 L16.9921875,7 Z" id="Combined-Shape" fill="#8B96A0"></path>
    </g>
</svg>