<?xml version="1.0" encoding="UTF-8"?>
<svg width="24px" height="24px" viewBox="0 0 24 24" version="1.1" xmlns="http://www.w3.org/2000/svg" xmlns:xlink="http://www.w3.org/1999/xlink">
    <title>Icon/product/feedback</title>
    <g id="Icon/product/feedback" stroke="none" stroke-width="1" fill="none" fill-rule="evenodd">
        <g id="Icon-24px" transform="translate(2.000000, 2.000000)" fill="#c5cbd1">
            <path d="M18,0 L2,0 C0.9,0 0.01,0.9 0.01,2 L0,20 L4,16 L18,16 C19.1,16 20,15.1 20,14 L20,2 C20,0.9 19.1,0 18,0 L18,0 Z M11,12 L9,12 L9,10 L11,10 L11,12 L11,12 Z M11,8 L9,8 L9,4 L11,4 L11,8 L11,8 Z" id="Shape"></path>
        </g>
    </g>
</svg>