<?xml version="1.0" encoding="UTF-8"?>
<svg width="24px" height="24px" viewBox="0 0 24 24" version="1.1" xmlns="http://www.w3.org/2000/svg" xmlns:xlink="http://www.w3.org/1999/xlink">
    <title>Icon/product/vpn_key</title>
    <g id="Icon/product/vpn_key" stroke="none" stroke-width="1" fill="none" fill-rule="evenodd">
        <g id="Icon-24px" transform="translate(1.000000, 6.000000)" fill="#8b96a0">
            <path d="M11.65,4 C10.83,1.67 8.61,0 6,0 C2.69,0 0,2.69 0,6 C0,9.31 2.69,12 6,12 C8.61,12 10.83,10.33 11.65,8 L16,8 L16,12 L20,12 L20,8 L22,8 L22,4 L11.65,4 L11.65,4 Z M6,8 C4.9,8 4,7.1 4,6 C4,4.9 4.9,4 6,4 C7.1,4 8,4.9 8,6 C8,7.1 7.1,8 6,8 L6,8 Z" id="Shape"></path>
        </g>
    </g>
</svg>