<?xml version="1.0" encoding="UTF-8"?>
<svg width="24px" height="24px" viewBox="0 0 24 24" version="1.1" xmlns="http://www.w3.org/2000/svg" xmlns:xlink="http://www.w3.org/1999/xlink">
    <title>Icon/product/tag-remove-new</title>
    <g id="Icon/product/tag-remove-new" stroke="none" stroke-width="1" fill="none" fill-rule="evenodd">
        <path d="M11,2 C11.5,2 11.9259259,2.14814815 12.2777778,2.44444444 L12.40625,2.5625 L21.40625,11.5625 C21.78125,11.9375 21.96875,12.40625 21.96875,12.96875 C21.96875,13.46875 21.8206019,13.8946759 21.5243056,14.2465278 L21.40625,14.375 L14.375,21.40625 C14,21.78125 13.53125,21.96875 12.96875,21.96875 C12.46875,21.96875 12.0428241,21.8206019 11.6909722,21.5243056 L11.5625,21.40625 L10.9670679,20.8109321 C10.5766025,20.4205418 10.5765418,19.7875332 10.9669322,19.3970679 C10.9669548,19.3970452 10.9669774,19.3970226 10.967,19.397 C11.3574653,19.0065347 11.9905347,19.0065347 12.381,19.397 L12.954,19.97 L12.954,19.97 L12.96875,19.96875 L12.982,19.97 L19.97,12.982 L19.96875,12.96875 L19.97,12.954 L11.013,3.997 L11,4 L4,4 L4,11 L3.997,11.013 L4.189,11.205 C4.57946532,11.5954653 4.57946532,12.2285347 4.189,12.619 C3.79858775,13.0094122 3.16560443,13.0094122 2.77519218,12.619 C2.77516016,12.618968 2.77512813,12.6189359 2.77509611,12.6189039 L2.5625,12.40625 L2.5625,12.40625 C2.22916667,12.0729167 2.04398148,11.6655093 2.00694444,11.1840278 L2,11 L2,3.96875 C2,3.40625 2.1875,2.9375 2.5625,2.5625 C2.89583333,2.22916667 3.30324074,2.04398148 3.78472222,2.00694444 L3.96875,2 L11,2 Z M6.4921875,5.015625 C6.9140625,5.015625 7.265625,5.15625 7.546875,5.4375 C7.828125,5.71875 7.96875,6.0703125 7.96875,6.4921875 C7.96875,6.9140625 7.828125,7.265625 7.546875,7.546875 C7.265625,7.828125 6.90625,7.96875 6.46875,7.96875 C6.0625,7.96875 5.71875,7.828125 5.4375,7.546875 C5.15625,7.265625 5.015625,6.9140625 5.015625,6.4921875 C5.015625,6.0703125 5.15625,5.71875 5.4375,5.4375 C5.71875,5.15625 6.0703125,5.015625 6.4921875,5.015625 Z" id="Shape" fill="#8B96A0"></path>
        <path d="M8,12.5 C8.55228475,12.5 9,12.9477153 9,13.5 L9,15.5 L11,15.5 C11.5522847,15.5 12,15.9477153 12,16.5 C12,17.0522847 11.5522847,17.5 11,17.5 L9,17.5 L9,19.5 C9,20.0522847 8.55228475,20.5 8,20.5 C7.44771525,20.5 7,20.0522847 7,19.5 L7,17.5 L5,17.5 C4.44771525,17.5 4,17.0522847 4,16.5 C4,15.9477153 4.44771525,15.5 5,15.5 L7,15.5 L7,13.5 C7,12.9477153 7.44771525,12.5 8,12.5 Z" id="Combined-Shape" fill="#8B96A0" transform="translate(8.000000, 16.500000) rotate(-315.000000) translate(-8.000000, -16.500000) "></path>
    </g>
</svg>