<?xml version="1.0" encoding="UTF-8"?>
<svg width="24px" height="24px" viewBox="0 0 24 24" version="1.1" xmlns="http://www.w3.org/2000/svg" xmlns:xlink="http://www.w3.org/1999/xlink">
    <title>Icon/product/format_list_bulleted</title>
    <g id="Icon/product/format_list_bulleted" stroke="none" stroke-width="1" fill="none" fill-rule="evenodd">
        <g id="Icon-24px" transform="translate(2.000000, 4.000000)" fill="#8B96A0">
            <path d="M2,6.5 C1.17,6.5 0.5,7.17 0.5,8 C0.5,8.83 1.17,9.5 2,9.5 C2.83,9.5 3.5,8.83 3.5,8 C3.5,7.17 2.83,6.5 2,6.5 L2,6.5 Z M2,0.5 C1.17,0.5 0.5,1.17 0.5,2 C0.5,2.83 1.17,3.5 2,3.5 C2.83,3.5 3.5,2.83 3.5,2 C3.5,1.17 2.83,0.5 2,0.5 L2,0.5 Z M2,12.67 C1.26,12.67 0.67,13.27 0.67,14 C0.67,14.73 1.27,15.33 2,15.33 C2.73,15.33 3.33,14.73 3.33,14 C3.33,13.27 2.74,12.67 2,12.67 L2,12.67 Z M5,15 L19,15 L19,13 L5,13 L5,15 L5,15 Z M5,9 L19,9 L19,7 L5,7 L5,9 L5,9 Z M5,1 L5,3 L19,3 L19,1 L5,1 L5,1 Z" id="Shape"></path>
        </g>
    </g>
</svg>