<?xml version="1.0" encoding="UTF-8"?>
<svg width="24px" height="24px" viewBox="0 0 24 24" version="1.1" xmlns="http://www.w3.org/2000/svg" xmlns:xlink="http://www.w3.org/1999/xlink">
    <title>Icon/product/custom_fields </title>
    <g id="Icon/product/custom_fields-" stroke="none" stroke-width="1" fill="none" fill-rule="evenodd">
        <path d="M18.984375,21 C19.546875,21 20.0234375,20.8046875 20.4140625,20.4140625 C20.8046875,20.0234375 21,19.546875 21,18.984375 L21,5.015625 C21,4.421875 20.8046875,3.9375 20.4140625,3.5625 C20.0234375,3.1875 19.546875,3 18.984375,3 L5.015625,3 C4.421875,3 3.9375,3.1875 3.5625,3.5625 C3.1875,3.9375 3,4.421875 3,5.015625 L3,18.984375 C3,19.546875 3.1953125,20.0234375 3.5859375,20.4140625 C3.9765625,20.8046875 4.453125,21 5.015625,21 L18.984375,21 Z M8.484375,17.015625 L6,17.015625 L6,14.484375 L13.875,6.65625 C14.125,6.4375 14.359375,6.4375 14.578125,6.65625 L16.359375,8.390625 C16.546875,8.640625 16.546875,8.890625 16.359375,9.140625 L8.484375,17.015625 Z M18,17.015625 L10.5,17.015625 L12.515625,15 L18,15 L18,17.015625 Z" id="shape" fill="#8B96A0"></path>
    </g>
</svg>