<?xml version="1.0" encoding="UTF-8"?>
<svg width="24px" height="24px" viewBox="0 0 24 24" version="1.1" xmlns="http://www.w3.org/2000/svg" xmlns:xlink="http://www.w3.org/1999/xlink">
    <title>Icon/product/ldap_authentication</title>
    <g id="Icon/product/ldap_authentication" stroke="none" stroke-width="1" fill="none" fill-rule="evenodd">
        <path d="M21.96875,21.96875 L21.96875,17.984375 L13.71875,9.734375 C13.90625,9.171875 14,8.59375 14,8 C13.9375,6.28125 13.34375,4.859375 12.21875,3.734375 C11.09375,2.609375 9.6875,2.03125 8,2 C6.28125,2.03125 4.859375,2.609375 3.734375,3.734375 C2.609375,4.859375 2.03125,6.28125 2,8 C2.03125,9.6875 2.609375,11.09375 3.734375,12.21875 C4.859375,13.34375 6.28125,13.9375 8,14 C8.59375,14 9.171875,13.90625 9.734375,13.71875 L9.734375,13.71875 L11.984375,15.96875 L14.984375,15.96875 L14.984375,18.96875 L17.984375,18.96875 L17.984375,21.96875 L21.96875,21.96875 Z M6.96875,8.984375 C6.40625,8.984375 5.9375,8.7890625 5.5625,8.3984375 C5.1875,8.0078125 5,7.53125 5,6.96875 C5,6.40625 5.1875,5.9375 5.5625,5.5625 C5.9375,5.1875 6.40625,5 6.96875,5 C7.53125,5 8.0078125,5.1875 8.3984375,5.5625 C8.7890625,5.9375 8.984375,6.40625 8.984375,6.96875 C8.984375,7.53125 8.7890625,8.0078125 8.3984375,8.3984375 C8.0078125,8.7890625 7.53125,8.984375 6.96875,8.984375 Z" id="shape" fill="#fcc647"></path>
    </g>
</svg>