<?xml version="1.0" encoding="UTF-8"?>
<svg width="24px" height="24px" viewBox="0 0 24 24" version="1.1" xmlns="http://www.w3.org/2000/svg" xmlns:xlink="http://www.w3.org/1999/xlink">
    <title>Icon/product/ticket</title>
    <defs>
        <path d="M20.028169,20 C20.5915493,19.9688109 21.0610329,19.7660819 21.4366197,19.3918129 C21.8122066,19.0175439 22,18.5497076 22,17.9883041 L22,14.0116959 C21.4366197,13.9805068 20.9671362,13.7777778 20.5915493,13.4035088 C20.2159624,13.0292398 20.028169,12.5614035 20.028169,12 C20.028169,11.4385965 20.2159624,10.9707602 20.5915493,10.5964912 C20.9671362,10.2222222 21.4366197,10.0194932 22,9.98830409 L22,6.01169591 C22,5.4502924 21.8122066,4.98245614 21.4366197,4.60818713 C21.0610329,4.23391813 20.5915493,4.03118908 20.028169,4 L3.97183099,4 C3.4084507,4.03118908 2.93896714,4.23391813 2.56338028,4.60818713 C2.18779343,4.98245614 2,5.4502924 2,6.01169591 L2,9.98830409 C2.56338028,10.0194932 3.03286385,10.2222222 3.4084507,10.5964912 C3.78403756,10.9707602 3.97183099,11.4385965 3.97183099,12 C3.97183099,12.5614035 3.78403756,13.0292398 3.4084507,13.4035088 C3.03286385,13.7777778 2.56338028,13.9805068 2,14.0116959 L2,17.9883041 C2,18.5497076 2.18779343,19.0175439 2.56338028,19.3918129 C2.93896714,19.7660819 3.4084507,19.9688109 3.97183099,20 L20.028169,20 Z M15.5680751,16.7719298 L12,14.4795322 L8.43192488,16.7719298 L9.51173709,12.7017544 L6.17840376,9.98830409 L10.4507042,9.75438596 L12,5.8245614 L13.5492958,9.75438596 L17.8215962,9.98830409 L14.4882629,12.7017544 L15.5680751,16.7719298 Z" id="path-1"></path>
    </defs>
    <g id="Icon/product/ticket" stroke="none" stroke-width="1" fill="none" fill-rule="evenodd">
        <g id="shape" fill-rule="nonzero">
            <use fill="#FFFFFF" xlink:href="#path-1"></use>
            <use fill="#8B96A0" xlink:href="#path-1"></use>
        </g>
    </g>
</svg>