<?xml version="1.0" encoding="UTF-8"?>
<svg width="24px" height="24px" viewBox="0 0 24 24" version="1.1" xmlns="http://www.w3.org/2000/svg" xmlns:xlink="http://www.w3.org/1999/xlink">
    <title>Icon/product/alarm-add</title>
    <g id="Icon/product/alarm-add" stroke="none" stroke-width="1" fill="none" fill-rule="evenodd">
        <g id="Icon-24px" transform="translate(2.000000, 1.860000)" fill="#8B96A0">
            <path d="M5.88,1.53 L4.6,0 L0,3.85 L1.29,5.38 L5.88,1.53 L5.88,1.53 Z M20,3.86 L15.4,-4.4408921e-16 L14.11,1.53 L18.71,5.39 L20,3.86 L20,3.86 Z M10,2.14 C5.03,2.14 1,6.17 1,11.14 C1,16.11 5.02,20.14 10,20.14 C14.97,20.14 19,16.11 19,11.14 C19,6.17 14.97,2.14 10,2.14 L10,2.14 Z M10,18.14 C6.13,18.14 3,15.01 3,11.14 C3,7.27 6.13,4.14 10,4.14 C13.87,4.14 17,7.27 17,11.14 C17,15.01 13.87,18.14 10,18.14 L10,18.14 Z M11,7.14 L9,7.14 L9,10.14 L6,10.14 L6,12.14 L9,12.14 L9,15.14 L11,15.14 L11,12.14 L14,12.14 L14,10.14 L11,10.14 L11,7.14 L11,7.14 Z" id="Shape"></path>
        </g>
    </g>
</svg>