<svg xmlns="http://www.w3.org/2000/svg" width="18" height="18" viewBox="0 0 18 18">
    <g fill="none" fill-rule="evenodd">
        <g fill="#337cbd">
            <g>
                <g>
                    <g>
                        <g>
                            <path d="M4.5 13.387v.863c0 .414-.336.75-.75.75S3 14.664 3 14.25v-.863c0-2.23 3.426-3.637 6.375-3.637 2.888 0 6.232 1.35 6.37 3.5l.005.137v.863c0 .414-.336.75-.75.75s-.75-.336-.75-.75v-.863c0-.982-2.404-2.021-4.525-2.128l-.176-.007-.174-.002c-2.138 0-4.734 1.044-4.87 2.056l-.005.082zM9.38 2.25c1.865 0 3.37 1.51 3.37 3.375S11.245 9 9.38 9C7.514 9 6 7.489 6 5.625S7.514 2.25 9.38 2.25zm0 1.5c-1.038 0-1.88.84-1.88 1.875 0 1.034.842 1.875 1.88 1.875 1.035 0 1.87-.838 1.87-1.875S10.415 3.75 9.38 3.75z" transform="translate(-23 -61) translate(12 52) translate(8) translate(0 6) translate(3 3)"/>
                        </g>
                    </g>
                </g>
            </g>
        </g>
    </g>
</svg>
