<?xml version="1.0" encoding="UTF-8"?>
<svg width="24px" height="24px" viewBox="0 0 24 24" version="1.1" xmlns="http://www.w3.org/2000/svg" xmlns:xlink="http://www.w3.org/1999/xlink">
    <title>Icon/product/user-social-topic-new</title>
    <g id="Icon/product/user-social-topic-new" stroke="none" stroke-width="1" fill="none" fill-rule="evenodd">
        <path d="M2,12.5 C2,6.70101013 6.70101013,2 12.5,2 C18.2989899,2 23,6.70101013 23,12.5 C23,14.3451704 22.5240521,16.0791772 21.6882263,17.5859503 L21.841152,17.2964867 C21.7815071,17.4133325 21.7196501,17.5288407 21.6556573,17.642979 C21.5479654,17.8355408 21.4337238,18.0242607 21.3138331,18.2089749 C21.2994986,18.2310113 21.2853061,18.2527091 21.2710348,18.2743503 C20.4514416,19.5169147 19.3744994,20.5752811 18.1161895,21.3733672 C18.1021138,21.3817909 18.0888062,21.3901926 18.0754784,21.3985651 C18.0077703,21.4415764 17.9387451,21.4838193 17.8692003,21.5252811 C17.8381561,21.5433723 17.807499,21.5614461 17.7767425,21.579368 C17.7319999,21.6058258 17.6866353,21.6317976 17.6410599,21.6574389 C17.5995381,21.6804508 17.5580928,21.7034096 17.5164769,21.7260948 C17.3986018,21.7906473 17.2793101,21.852705 17.1587049,21.9125128 C17.0654743,21.9585221 16.97108,22.0036061 16.8759193,22.0473084 C16.828688,22.0691872 16.7812703,22.0905291 16.7336671,22.1115278 C16.6931859,22.1292191 16.6522386,22.1469769 16.6111568,22.1644802 C16.5565707,22.1878823 16.5022421,22.2104787 16.4476852,22.2326298 C16.4111197,22.2473472 16.374101,22.2621369 16.336979,22.2767212 C16.0581875,22.3863377 15.773707,22.4842137 15.4840046,22.5699285 C15.4534395,22.5789217 15.4231493,22.587735 15.3928029,22.5964152 C15.3259341,22.6155864 15.2584894,22.6341457 15.1907766,22.6520455 C15.1585387,22.660532 15.1265807,22.6688182 15.0945639,22.6769572 C15.0244817,22.6948039 14.953832,22.7119804 14.8829068,22.7284382 C14.8501283,22.7360219 14.8171563,22.7435059 14.7841257,22.7508342 C14.7205134,22.7649653 14.6568559,22.7784639 14.5929882,22.7913828 C14.5522682,22.799606 14.5111881,22.8076613 14.4700227,22.8154762 C14.4298378,22.8231156 14.3899313,22.8304492 14.3499466,22.8375565 C14.2593603,22.8536507 14.1682398,22.8686135 14.0767322,22.8823951 C13.9066349,22.9080239 13.7347861,22.9296078 13.5616976,22.946988 C13.5245555,22.950715 13.4876178,22.9542268 13.4506247,22.9575466 C13.3877415,22.9631907 13.3247329,22.9682768 13.2615696,22.9728041 C13.2095671,22.9765335 13.156943,22.9799142 13.1042148,22.9829057 C13.0472179,22.9861373 12.9905473,22.9888958 12.9337605,22.9912033 C12.8977929,22.9926661 12.8613616,22.9939608 12.8248835,22.9950695 C12.716715,22.9983528 12.6085499,23 12.5,23 C12.3894275,23 12.2792541,22.9982908 12.169505,22.9948975 L12.5,23 C12.3779394,23 12.2563652,22.9979172 12.1353111,22.9937853 C12.0577886,22.9911399 11.9804015,22.9876496 11.903237,22.9833262 C11.8524167,22.9804787 11.801714,22.9772713 11.7511103,22.9737053 C11.6828772,22.9688987 11.6145458,22.9634152 11.5464021,22.9572806 C11.5194008,22.9548491 11.4927481,22.9523465 11.4661245,22.9497444 C11.4003633,22.9433184 11.3346078,22.9362656 11.2690367,22.9286086 C11.2247246,22.9234357 11.1801389,22.9179405 11.1356407,22.9121666 C11.0805087,22.9050098 11.0261083,22.8975125 10.9718425,22.8896001 C10.7992424,22.864442 10.6275206,22.8349894 10.4572765,22.8014218 C10.3861609,22.7873983 10.3154972,22.7726992 10.2450978,22.7572938 C10.2202797,22.7518645 10.1948914,22.7462108 10.169538,22.7404653 C10.0961397,22.7238282 10.0235433,22.7065495 9.95124353,22.6885214 C9.91632044,22.6798141 9.88123737,22.6708723 9.84622539,22.6617543 C9.78791524,22.6465684 9.72987328,22.6309137 9.67203268,22.6147762 C9.63149286,22.6034652 9.59115503,22.5919471 9.5509172,22.5801946 C9.4980785,22.5647617 9.44541223,22.5489246 9.39292195,22.5326869 C9.34623761,22.5182454 9.29967013,22.5034797 9.25324453,22.4883994 C9.2089211,22.4740027 9.16456932,22.4592656 9.12034999,22.4442419 C8.93505144,22.3812815 8.75227443,22.3133666 8.57198061,22.2405911 C8.53157683,22.2242834 8.49104161,22.2076245 8.45063455,22.1907202 C8.40661164,22.1723028 8.36281735,22.1536274 8.31917705,22.1346642 C8.26901309,22.1128666 8.21899669,22.0906633 8.16918786,22.0680826 C8.13346244,22.0518853 8.09811223,22.0356192 8.06286852,22.019163 C8.01395337,21.996325 7.96499099,21.9729984 7.91623947,21.9493057 C7.87410824,21.92883 7.83219111,21.9081093 7.79043333,21.8871181 C7.65496939,21.8190237 7.52109304,21.7480334 7.38897457,21.6742719 C7.21734187,21.5784518 7.04859356,21.4779028 6.88298743,21.3728451 C6.85816939,21.3571003 6.83359443,21.3413657 6.80908963,21.3255319 C6.77119902,21.3010506 6.73316137,21.2761229 6.69529644,21.2509559 C6.55742719,21.1593167 6.42202542,21.064637 6.28901102,20.9668982 C6.26007215,20.9456346 6.23112394,20.9241343 6.20229077,20.9024892 C6.17230351,20.8799769 6.14256303,20.8574018 6.11294718,20.8346724 C5.99228885,20.742073 5.8735753,20.6468089 5.75701614,20.5490599 L5.5569854,20.3770069 C5.47600898,20.305577 5.39614257,20.232918 5.31741537,20.159059 C5.2908321,20.1341169 5.2647842,20.1094263 5.2388633,20.0846041 C5.20383547,20.0510629 5.1688366,20.0170816 5.13407507,19.9828599 C5.09172743,19.9411695 5.04977003,19.8991611 5.00816908,19.8568014 C4.97604274,19.8240895 4.94407768,19.7911146 4.91232812,19.7579318 C4.88305042,19.7273321 4.85399971,19.6966024 4.82513347,19.6656981 C4.69638708,19.5278518 4.571566,19.3868387 4.45055406,19.2425235 L4.44268349,19.2331262 C4.35574726,19.1292037 4.27078409,19.0235741 4.1878516,18.9162948 C4.15184971,18.8697221 4.11633746,18.8229818 4.08121027,18.7759371 C4.07327403,18.7653071 4.06573078,18.7551654 4.05820541,18.7450096 C3.85147057,18.465945 3.65888681,18.177346 3.48066987,17.8791695 L3.48007429,17.8781729 C3.39999429,17.7441567 3.32281631,17.6082062 3.2486271,17.4704082 L3.13542287,17.2541422 C2.40933278,15.8267499 2,14.2111773 2,12.5 Z M12.5,4 C7.80557963,4 4,7.80557963 4,12.5 C4,14.0380212 4.40849006,15.4806344 5.12289588,16.7252654 C5.37247987,16.5775458 5.61591667,16.4098955 5.85330601,16.2235879 L6.14026391,15.9867386 C6.72107132,15.4832944 7.15814933,15.349553 7.47593149,15.2998899 L7.83109225,15.2584212 C8.04766003,15.2270748 8.15579131,15.1528627 8.17991964,14.7501605 C8.21137584,14.2251561 8.16286241,13.938363 8.09660246,13.745079 L8.04455226,13.615388 L7.94382068,13.4069404 L7.92359316,13.3555481 C7.86149716,13.1800097 7.79858784,12.9531703 7.7348652,12.6750298 C7.53099812,12.7141679 7.41635281,12.6299201 7.28524002,12.4725046 L7.14472366,12.2925599 C6.93961118,12.0250744 6.84786458,11.2777684 6.8764775,11.0605817 C6.89555278,10.9157905 6.98496817,10.8668679 7.14472366,10.9138137 L7.30567135,10.9627363 C7.01954212,10.3430492 7.00165904,9.79002149 7.14472366,8.77895296 C7.17813414,8.54283388 7.29255349,8.4248482 7.41325936,8.33957921 L7.62117933,8.20297905 C7.72252897,8.12622007 7.78533171,8.03092776 7.7348652,7.8316854 C7.90654274,7.49901124 8.92334988,7 10.2342443,7 C10.8824404,7.01654736 11.4710256,7.21692603 12,7.60113602 C10.8950892,7.74132668 9.92336032,8.18332554 9.64973657,8.71354955 L9.56003003,8.88738153 L9.58012097,8.96879764 L9.55345368,8.98607398 C9.25084057,9.18668129 9.06112427,9.44111502 9.0066501,9.82609577 L8.97046536,10.1014749 C8.89609876,10.7203462 8.89295376,11.1791374 8.97720966,11.597104 L8.98714015,11.6419352 C8.85041124,11.7618158 8.76315365,11.9196834 8.73774622,12.1125387 C8.68354206,12.5239761 8.83766427,13.3713588 9.11176551,13.728812 L9.29392503,13.9601552 L9.35471815,14.0255407 L9.45425099,14.1185934 C9.52285409,14.1760599 9.59595185,14.2242314 9.67353772,14.2621612 L9.69525086,14.2703527 L9.74083111,14.4308748 L9.80988435,14.6436608 L9.83752133,14.7150706 L9.94317606,14.9356128 C10.0195684,15.0981154 10.0572643,15.2902978 10.0457404,15.6655024 L10.0377575,15.8379568 C10.0097404,16.3055617 9.87761008,16.4759813 9.24084156,16.527012 L8.95827072,16.5414783 L8.61617546,16.5457385 C7.86588402,16.5457385 6.80736168,16.7658472 5.42021082,17.2042128 C5.57004356,17.430575 5.73093106,17.6488162 5.90163682,17.8587537 L5.981164,17.8327469 C7.03630376,17.4938454 7.86328092,17.3093547 8.46209545,17.2792747 L8.63057981,17.2748799 C10.0074985,17.2748799 10.5657097,17.0145988 10.6233338,15.9986534 C10.6540666,15.4568159 10.6066688,15.1608273 10.5419325,14.9613461 L10.4910792,14.8274968 L10.3926639,14.6123657 L10.3729015,14.5593256 C10.3122334,14.378159 10.2507707,14.1440464 10.1885133,13.8569879 C9.98195716,13.898877 9.86914773,13.8038165 9.73492271,13.6296097 L9.61194206,13.4622549 C9.41154614,13.186193 9.32190924,12.4149262 9.34986421,12.1907758 C9.36850086,12.0413423 9.45586014,11.990851 9.61194206,12.039302 L9.76918877,12.0897933 C9.48963907,11.4502371 9.47216721,10.8794778 9.61194206,9.83599142 C9.64458427,9.59230167 9.75637256,9.47053302 9.87430281,9.38253005 L10.0774417,9.24155009 C10.1764608,9.16232999 10.2378194,9.06398233 10.1885133,8.85835168 C10.3562432,8.51501101 11.3496689,8 12.6304193,8 C13.5454479,8.02467552 14.3388901,8.44543615 15.0107458,9.26228188 C15.332228,9.72680162 15.4370591,10.4000186 15.3252392,11.2819329 L15.115577,12.0897933 L15.2728237,12.039302 C15.3909995,11.9850128 15.4783588,12.0355041 15.5349015,12.1907758 C15.6197156,12.4236835 15.398621,13.5405759 14.9583303,13.8569879 L14.6962524,14.0084618 C14.6903576,14.1625398 14.6337943,14.3945214 14.5265625,14.7044065 L14.4820767,14.8287693 L14.4019288,15.0268244 C14.3524185,15.1363408 14.3107515,15.2008168 14.2769278,15.2202524 C14.1914673,15.5015692 14.2159333,15.8164989 14.3503258,16.1650413 L14.4404593,16.3850217 L14.5165966,16.5356371 C14.7447811,16.9384982 15.1998843,17.3414991 16.4988647,17.5137735 L16.7524633,17.5433148 C17.4504428,17.6140277 18.185392,17.7747804 18.9573108,18.0255728 C19.0483377,17.921469 19.1361808,17.8137189 19.2213883,17.7038228 C18.4739184,17.4286726 17.7570963,17.2414709 17.0703418,17.1414041 L16.7438411,17.1001557 C15.457093,16.9628908 15.1798401,16.7399379 14.9450306,16.0987195 L14.9012406,15.961118 C14.8777631,15.8731282 14.865559,15.7924941 14.8636796,15.7184146 L14.8674913,15.6189563 L14.9035736,15.5628822 C14.9469237,15.4856611 14.9869482,15.3930028 15.0292103,15.2789593 L15.1183661,15.0205963 L15.1822791,14.8160441 L15.2333089,14.6295101 L15.2628674,14.4965464 L15.2802631,14.486987 C15.890477,14.0289044 16.2571431,12.6818387 16.0709395,12.1434285 L16.0267868,12.0355818 C15.9938278,11.966569 15.9539949,11.9035482 15.9083314,11.8478536 L15.8358762,11.7705295 L15.8872178,11.5638998 C16.0206884,10.4913068 15.9018602,9.68779229 15.5112008,9.0934246 C14.7974977,8.1768411 13.959753,7.67472737 13,7.58801098 C13.3830813,7.29648515 14.147814,7 15.0696372,7 C15.936647,7.02461871 16.688451,7.44441058 17.3250492,8.25937563 C17.6296607,8.72282586 17.7289905,9.39449287 17.6230387,10.2743766 L17.424379,11.080377 L17.5733738,11.030002 C17.685348,10.9758378 17.7681229,11.0262128 17.8216983,11.1811271 C17.9020615,11.4134985 17.6925696,12.5278194 17.2753843,12.8435029 L17.0270597,12.994628 C17.0224052,13.1227308 16.9844107,13.3048086 16.9130763,13.5408616 L16.8241235,13.8130469 L16.7481816,14.0106459 C16.7012695,14.1199103 16.6617891,14.1842378 16.6297404,14.2036286 C16.5487647,14.4842978 16.5719468,14.7985023 16.6992866,15.1462423 L16.7846901,15.3657162 L16.8568319,15.5159848 C17.0730417,15.9179184 17.5042621,16.3199914 18.7350747,16.4918692 L18.9753651,16.5213424 C19.2775525,16.5535785 19.5870535,16.6045698 19.9038679,16.6743163 C20.6020871,15.4430191 21,14.0179783 21,12.5 C21,7.80557963 17.1944204,4 12.5,4 Z" id="Oval" fill="#8B96A0"></path>
    </g>
</svg>