<?xml version="1.0" encoding="UTF-8"?>
<svg width="24px" height="24px" viewBox="0 0 24 24" version="1.1" xmlns="http://www.w3.org/2000/svg" xmlns:xlink="http://www.w3.org/1999/xlink">
    <title>Icon/product/visibility</title>
    <g id="Icon/product/visibility" stroke="none" stroke-width="1" fill="none" fill-rule="evenodd">
        <g id="Icon-24px" transform="translate(1.000000, 4.500000)" fill="#8B96A0">
            <path d="M11,0 C16,0 20.27,3.11 22,7.5 C20.27,11.89 16,15 11,15 C6,15 1.73,11.89 0,7.5 C1.73,3.11 6,0 11,0 Z M11,2 C7.3276702,2 4.03570887,4.0392665 2.34847366,7.18104549 L2.185,7.499 L2.207812,7.54698098 C3.80585357,10.7580378 7.05081834,12.8886127 10.7102582,12.9957618 L11,13 C14.7772535,13 18.1520927,10.8425393 19.792188,7.54698098 L19.814,7.499 L19.792188,7.45301902 C18.1941464,4.24196222 14.9491817,2.11138727 11.2897418,2.00423816 L11,2 Z M11,3.5 C13.2085695,3.5 15,5.2914305 15,7.5 C15,9.7085695 13.2085695,11.5 11,11.5 C8.7914305,11.5 7,9.7085695 7,7.5 C7,5.2914305 8.7914305,3.5 11,3.5 Z M11,5.5 C9.896,5.5 9,6.396 9,7.5 C9,8.604 9.896,9.5 11,9.5 C12.104,9.5 13,8.604 13,7.5 C13,6.396 12.104,5.5 11,5.5 Z" id="Shape"></path>
        </g>
    </g>
</svg>