<?xml version="1.0" encoding="UTF-8"?>
<svg width="24px" height="24px" viewBox="0 0 24 24" version="1.1" xmlns="http://www.w3.org/2000/svg" xmlns:xlink="http://www.w3.org/1999/xlink">
    <title>Icon/product/receipt</title>
    <g id="Icon/product/receipt" stroke="none" stroke-width="1" fill="none" fill-rule="evenodd">
        <g id="Icon-24px" transform="translate(3.000000, 2.000000)" fill="#337cbd">
            <path d="M15,15 L3,15 L3,13 L15,13 L15,15 L15,15 Z M15,11 L3,11 L3,9 L15,9 L15,11 L15,11 Z M15,7 L3,7 L3,5 L15,5 L15,7 L15,7 Z M0,20 L1.5,18.5 L3,20 L4.5,18.5 L6,20 L7.5,18.5 L9,20 L10.5,18.5 L12,20 L13.5,18.5 L15,20 L16.5,18.5 L18,20 L18,0 L16.5,1.5 L15,0 L13.5,1.5 L12,0 L10.5,1.5 L9,0 L7.5,1.5 L6,0 L4.5,1.5 L3,0 L1.5,1.5 L0,0 L0,20 L0,20 Z" id="Shape"></path>
        </g>
    </g>
</svg>