<?xml version="1.0" encoding="UTF-8"?>
<svg width="24px" height="24px" viewBox="0 0 24 24" version="1.1" xmlns="http://www.w3.org/2000/svg" xmlns:xlink="http://www.w3.org/1999/xlink">
    <title>Icon/product/workflow</title>
    <g id="Icon/product/workflow" stroke="none" stroke-width="1" fill="none" fill-rule="evenodd">
        <path d="M7,3 C8.65685425,3 10,4.34314575 10,6 C10,7.29 9.19,8.39 8.04,8.81 C8.58,13.81 13.08,14.77 15.19,14.96 C15.61,13.81 16.71,13 18,13 C19.6568542,13 21,14.3431458 21,16 C21,17.6568542 19.6568542,19 18,19 C16.69,19 15.57,18.16 15.16,17 C10.91,16.8 9.44,15.19 8,13.39 L8,15.17 C9.17,15.58 10,16.69 10,18 C10,19.6568542 8.65685425,21 7,21 C5.34314575,21 4,19.6568542 4,18 C4,16.69 4.83,15.58 6,15.17 L6,8.83 C4.83,8.42 4,7.31 4,6 C4,4.34314575 5.34314575,3 7,3 M7,5 C6.44771525,5 6,5.44771525 6,6 C6,6.55228475 6.44771525,7 7,7 C7.55228475,7 8,6.55228475 8,6 C8,5.44771525 7.55228475,5 7,5 M7,17 C6.44771525,17 6,17.4477153 6,18 C6,18.5522847 6.44771525,19 7,19 C7.55228475,19 8,18.5522847 8,18 C8,17.4477153 7.55228475,17 7,17 M18,15 C17.4477153,15 17,15.4477153 17,16 C17,16.5522847 17.4477153,17 18,17 C18.5522847,17 19,16.5522847 19,16 C19,15.4477153 18.5522847,15 18,15 Z" id="Shape" fill="#8B96A0"></path>
    </g>
</svg>