<svg id="Layer_1" data-name="Layer 1" xmlns="http://www.w3.org/2000/svg" viewBox="0 0 900 400"><defs><style>.cls-1{fill:#001a2b;}.cls-2,.cls-3{fill:#fff;}.cls-3{fill-rule:evenodd;}.cls-4{fill:#b2d233;}</style></defs><rect class="cls-1" width="900" height="400"/><g id="Logo"><g id="Main"><path class="cls-2" d="M226.11,174.91l-2.58,14.3a3,3,0,0,1-3.28,2.81H201.73l-6.56,38.21a9.54,9.54,0,0,0-.24,2.35c0,2.11,1.18,2.57,5.39,2.57h12.2c1.64,0,3,.71,2.57,2.58l-2.34,12.9c-.23,1.64-1.64,2.57-3.52,3a102.41,102.41,0,0,1-17.58,1.41c-14.53,0-24.14-5.39-24.14-19,0-1.87.23-4,.46-6.33l12.43-70.09c.23-1.64,1.87-2.58,3.52-3l20.86-3.52c3.05-.46,3.75.94,3.28,2.82l-2.81,15.94h18.52C225.64,172.09,226.58,172.8,226.11,174.91Z"/><path class="cls-2" d="M352,174.91l-8.67,48.76c-4.22,24.14-20.63,31.41-38.68,31.41-8.21,0-16.18-.7-23-5.86-8.67,4.92-16.41,5.86-24.61,5.86-15.24,0-28.37-8.91-28.37-27.66a35.49,35.49,0,0,1,.94-8.21l7.73-44.54a3.47,3.47,0,0,1,3.76-3h21.33a2.36,2.36,0,0,1,2.34,2.35v.47l-8,44.77a21,21,0,0,0-.47,3.75c0,4.46,1.88,7.27,6.8,7.27a39.75,39.75,0,0,0,8.44-.94l9.61-54.85a3.76,3.76,0,0,1,3.52-3.05h21.33a2.35,2.35,0,0,1,2.35,2.34v.47l-9.62,54.62a36.37,36.37,0,0,0,8.21.94c6.09,0,9.14-4.45,10.31-10.78l8-44.78a3.72,3.72,0,0,1,3.29-3h21.33a2.28,2.28,0,0,1,2.58,2.34C352.23,174.44,352,174.67,352,174.91Z"/><path class="cls-2" d="M393,172.09c1.65,0,3.05.47,2.58,3l-13.36,75.72c-.23,1.64-.94,3-3.75,3H357.63c-1.65,0-3.05-.47-2.58-3l13.36-75.72c.23-1.64,1.17-3,3.75-3Zm5.4-27.19c1.64,0,3,.47,2.58,2.81l-2.35,13.83c-.23,1.64-.94,2.82-3.75,2.82H372.63c-2.58,0-3.05-1.18-2.58-2.82l2.34-13.83c.24-1.64,1.18-2.81,3.76-2.81Z"/><path class="cls-2" d="M479.76,203.74l-8.2,47.12c-.47,2.58-1.88,3-3.52,3h-21.1c-1.87,0-2.81-.94-2.34-3l8.67-49a31.38,31.38,0,0,0,.47-4.46c0-3-1.17-4.69-5.86-4.69h-5.39c-6.57,0-7.74,3.75-8.68,9.15l-8.67,49c-.23,1.64-.94,3-3.52,3H400.53a2.43,2.43,0,0,1-2.35-3l8.68-49c4-24.15,16.41-31,38.68-31h4.68c19.46,0,30.25,8.91,30.25,25.08A47.24,47.24,0,0,1,479.76,203.74Z"/><path class="cls-2" d="M554.31,192.25c-.23,1.64-.94,3.05-3.28,2.82-4-.47-17.35-2.35-23.68-2.35-2.81,0-5.86.24-5.86,2.58,0,1.88.94,2.58,5.16,5.16l8.91,5.16c12,7.26,14.77,14.06,14.77,21.56,0,20.63-17.12,27.67-36.81,27.67a109.19,109.19,0,0,1-26.26-3.29,2.43,2.43,0,0,1-2.11-3L487.73,234c.24-2.11,1.18-3.28,4-3,8.2,1.18,19.22,2.35,23.91,2.35,3.28,0,7.27-.47,7.27-4.69,0-1.64-.71-2.34-3.28-4l-11.49-6.79c-10.32-6.1-14.07-12.66-14.07-20.87,0-20.86,17.12-26.25,34.93-26.25a89.24,89.24,0,0,1,25.55,3.51c1.65.47,2.58,1.18,2.35,3.05Z"/><path class="cls-2" d="M604.48,148,586.43,250.86c-.47,2.35-1.64,3-3.28,3H561.81c-1.87,0-3-.94-2.58-3l18-102.91c.24-1.64,1.18-2.82,3.52-2.82h21.33C604,145.13,604.71,146.31,604.48,148Z"/><path class="cls-2" d="M756.39,192.25c-.24,1.64-.94,3.05-3.28,2.82-4-.47-17.35-2.35-23.68-2.35-2.82,0-5.86.24-5.86,2.58,0,1.88.93,2.58,5.15,5.16l8.91,5.16c12,7.26,14.77,14.06,14.77,21.56,0,20.63-17.11,27.67-36.8,27.67a109.19,109.19,0,0,1-26.26-3.29,2.43,2.43,0,0,1-2.11-3l2.58-14.3c.23-2.11,1.17-3.29,4-3.05,8.21,1.17,19.23,2.34,23.92,2.34,3.28,0,7.26-.47,7.26-4.69,0-1.64-.7-2.34-3.28-4L710.2,218c-10.31-6.09-14.06-12.66-14.06-20.86,0-20.87,17.11-26.26,34.93-26.26a89,89,0,0,1,25.55,3.52c1.64.47,2.58,1.17,2.35,3Z"/><path class="cls-2" d="M843.13,202.1l-8.68,48.76c-.23,1.64-.94,3-3.28,3H809.84c-1.64,0-2.82-.47-2.35-3l8-45.24a29.63,29.63,0,0,0,.94-6.8c0-4.46-2.34-5.63-8.91-5.63a39.86,39.86,0,0,0-9.37.94l-9.85,56.73c-.24,1.64-.7,3-3.28,3H763.65c-1.64,0-3-.94-2.57-3l18-102.91c.23-1.64.93-2.82,3.28-2.82H804c1.64,0,2.81.47,2.34,2.82L801.87,173a52.94,52.94,0,0,1,15.7-2.34c16.41,0,26.26,9.37,26.26,24.38A38.38,38.38,0,0,1,843.13,202.1Z"/><path class="cls-3" d="M684.88,184.52l1-5.9v-1.41c0-2.11-1.64-2.81-4.22-3.28a140.67,140.67,0,0,0-30.94-3.52c-24.15,0-38.21,8.21-43.37,36.81-1,6-2.58,12.16-2.58,18.28,0,17.35,5.25,29.54,24,29.54,8.5,0,12.4-1.95,15.5-5.63.59-.69,2.06-2.77,2.78-2.64s.53.68,0,3.09-.29,4,2.48,4h21.24c1.64,0,2.82-.7,3.28-3Zm-50.52,22.93c1.64-8.2,4.69-14.3,12.66-14.3,4,0,6.54.21,9.19.44l.42,0-6.8,38.45a51.94,51.94,0,0,1-9.61.7c-6.09,0-8.2-3.52-8.2-8.91a22.32,22.32,0,0,1,.46-5.39Z"/><path class="cls-4" d="M121.55,242.19H103.74a4.74,4.74,0,0,1-4.69-5.39l17.64-99.4a4.77,4.77,0,0,1,4.69-4H139.2a4.76,4.76,0,0,1,4.69,5.39l-17.65,99.4A4.77,4.77,0,0,1,121.55,242.19Z"/><path class="cls-4" d="M78.74,266.59H60.92a4.75,4.75,0,0,1-4.69-5.39l17.65-99.4a4.75,4.75,0,0,1,4.68-4H96.38a4.75,4.75,0,0,1,4.69,5.4L83.43,262.6A5,5,0,0,1,78.74,266.59Z"/></g></g></svg>