<svg width="1147" height="133" viewBox="0 0 1147 133" fill="none" xmlns="http://www.w3.org/2000/svg">
<path d="M64.0592 108.774H46.2427C43.4296 108.774 41.0853 106.196 41.5542 103.383L58.1985 3.98527C58.6674 1.64099 60.5428 0 62.8871 0H80.7036C83.5167 0 85.861 2.5787 85.3921 5.39183L68.7478 104.789C68.2789 107.133 66.4035 108.774 64.0592 108.774Z" fill="#B2D233"/>
<path d="M22.5651 132.217H4.74859C1.93546 132.217 -0.408816 129.639 0.0600395 126.825L16.7044 27.4281C17.1732 25.0839 19.0487 23.4429 21.3929 23.4429H39.2094C42.0226 23.4429 44.3668 26.0216 43.898 28.8347L27.2536 128.232C26.7848 130.576 24.6749 132.217 22.5651 132.217Z" fill="#B2D233"/>
<path d="M199.116 17.7659C199.116 16.4879 197.98 15.494 196.56 15.494H124.992C123.43 15.494 122.01 16.63 121.726 18.192L118.46 36.368V36.7939C118.46 38.214 119.454 39.066 120.874 39.066H142.458L128.542 118.16V118.728C128.542 120.006 129.394 121 130.814 121H153.96C155.522 121 157.084 119.722 157.368 118.16L171.284 39.066H192.442C194.004 39.066 195.566 37.93 195.85 36.368L199.116 18.192V17.7659Z" fill="#001A2B"/>
<path d="M321.22 40.628C321.22 39.208 320.226 38.356 318.522 38.356H297.08C295.518 38.356 293.956 39.776 293.672 41.3379L285.72 86.636C284.584 93.026 281.602 97.57 275.354 97.57C273.65 97.57 269.39 97.286 267.118 96.576L276.916 41.3379V40.77C276.916 39.492 276.064 38.356 274.644 38.356H253.06C251.498 38.356 249.794 39.776 249.51 41.3379L239.712 96.718C237.156 97.428 232.896 97.57 231.192 97.57C226.222 97.57 224.376 94.73 224.376 90.328C224.376 89.192 224.518 87.914 224.802 86.636L232.754 41.3379V40.77C232.754 39.492 231.902 38.356 230.482 38.356H209.04C206.768 38.356 205.632 39.634 205.348 41.3379L197.538 86.21C196.97 89.192 196.686 91.89 196.686 94.446C196.686 113.19 209.75 122.278 225.228 122.278C233.464 122.278 241.274 121.426 250.078 116.456C257.036 121.568 265.13 122.278 273.366 122.278C291.684 122.278 308.156 114.894 312.416 90.47L321.078 41.3379C321.078 41.054 321.22 40.77 321.22 40.628Z" fill="#001A2B"/>
<path d="M345.471 10.95C342.915 10.95 341.921 12.228 341.637 13.7899L339.223 27.706C338.939 29.268 339.223 30.546 341.921 30.546H364.357C367.197 30.546 367.765 29.268 368.049 27.706L370.463 13.7899C370.889 11.376 369.469 10.95 367.907 10.95H345.471ZM341.211 38.356C338.797 38.356 337.803 39.776 337.519 41.3379L324.029 117.876C323.603 120.432 325.023 121 326.585 121H347.743C350.441 121 351.151 119.438 351.435 117.876L364.925 41.3379C365.351 38.7819 363.931 38.356 362.369 38.356H341.211Z" fill="#001A2B"/>
<path d="M450.761 62.496C450.761 46.166 439.827 37.22 420.231 37.22H415.403C392.967 37.22 380.471 44.0359 376.211 68.46L367.549 117.876C367.265 119.296 368.117 121 369.963 121H391.263C393.819 121 394.529 119.438 394.813 117.876L403.475 68.46C404.469 63.064 405.605 59.2299 412.279 59.2299H417.675C422.361 59.2299 423.639 61.076 423.639 64.058C423.639 65.336 423.355 66.898 423.071 68.46L414.409 117.876C413.983 120.148 414.977 121 416.823 121H438.123C439.827 121 441.247 120.432 441.673 117.876L450.051 70.306C450.477 67.608 450.761 64.91 450.761 62.496Z" fill="#001A2B"/>
<path d="M578.016 19.896C578.016 18.618 577.022 18.05 575.886 17.624C570.348 15.92 555.58 14.074 544.362 14.074C521.784 14.074 501.762 21.7419 501.762 47.3019C501.762 56.106 505.738 65.336 513.974 70.732L532.292 82.802C536.41 85.5 537.83 87.062 537.83 89.192C537.83 95.582 533.144 97.57 527.464 97.57C519.938 97.57 504.886 96.008 499.064 95.44H498.78C497.076 95.44 495.798 96.718 495.514 98.28L492.532 115.746V116.172C492.532 117.45 493.668 118.16 494.946 118.586C502.188 120.716 511.276 122.278 522.92 122.278C547.06 122.278 569.354 111.486 569.354 84.932C569.354 74.992 565.378 67.182 555.154 61.218L537.83 50.994C533.002 48.154 531.582 46.876 531.582 44.888C531.582 40.202 535.7 38.924 539.676 38.924C549.9 38.924 565.946 40.344 571.626 40.77H571.91C573.472 40.77 574.608 39.634 574.892 38.0719L578.016 20.3219V19.896Z" fill="#001A2B"/>
<path d="M657.742 67.04C657.742 48.864 646.382 37.078 626.644 37.078C602.93 37.078 587.31 47.444 582.482 75.56L581.062 83.796C580.494 86.778 580.352 89.76 580.352 92.458C580.352 110.35 591.144 122.278 611.592 122.278C636.3 122.278 650.926 111.344 655.612 83.796L657.032 75.56C657.316 73.856 657.742 69.17 657.742 67.04ZM630.62 68.318C630.62 70.306 630.336 72.72 629.91 75.56L628.49 83.796C626.36 95.866 622.81 99.558 615.71 99.558C610.314 99.558 607.474 97.57 607.474 90.896C607.474 88.908 607.758 86.636 608.184 83.796L609.604 75.56C611.592 64.342 615.426 59.94 622.668 59.94C628.206 59.94 630.62 62.07 630.62 68.318Z" fill="#001A2B"/>
<path d="M706.514 11.2339H685.072C682.658 11.2339 681.806 12.5119 681.522 14.074L663.204 117.876C662.778 120.006 663.914 121 665.76 121H687.202C689.048 121 690.184 120.29 690.61 117.876L708.928 14.074C709.212 12.3699 708.36 11.2339 706.514 11.2339Z" fill="#001A2B"/>
<path d="M791.247 38.356H769.947C767.391 38.356 766.681 39.918 766.397 41.48L758.445 87.062C756.883 96.008 753.475 99.558 746.801 99.558H745.949C740.411 99.558 738.281 97.002 738.281 92.6C738.281 90.47 738.565 88.908 738.849 87.062L746.801 41.48C747.227 39.3499 746.233 38.356 744.387 38.356H723.087C720.389 38.356 719.821 39.918 719.537 41.48L711.727 85.216C711.159 88.056 711.017 90.754 711.017 93.31C711.017 110.776 723.229 122.278 743.251 122.278H744.103C766.965 122.278 781.307 111.344 785.141 89.476L793.661 41.48C794.087 39.208 793.093 38.356 791.247 38.356Z" fill="#001A2B"/>
<path d="M855.563 38.356H836.819L839.659 22.168C839.943 20.3219 839.233 18.902 836.251 19.328L815.093 22.8779C813.389 23.162 811.827 24.2979 811.543 25.86L799.047 96.718C798.621 98.99 798.479 101.12 798.479 103.108C798.479 116.882 808.135 122.278 822.761 122.278C829.009 122.278 835.399 121.71 840.511 120.858C842.357 120.574 843.777 119.438 844.061 117.876L846.333 104.812C846.759 102.824 845.481 102.114 843.777 102.114H831.565C827.305 102.114 826.169 101.688 826.169 99.558C826.169 98.99 826.311 98.138 826.453 97.144L833.127 58.662H851.871C854.143 58.662 854.995 57.242 855.279 55.68L857.835 41.3379C858.261 39.208 857.267 38.356 855.563 38.356Z" fill="#001A2B"/>
<path d="M877.833 10.95C875.277 10.95 874.283 12.228 873.999 13.7899L871.585 27.706C871.301 29.268 871.585 30.546 874.283 30.546H896.719C899.559 30.546 900.127 29.268 900.411 27.706L902.825 13.7899C903.251 11.376 901.831 10.95 900.269 10.95H877.833ZM873.573 38.356C871.159 38.356 870.165 39.776 869.881 41.3379L856.391 117.876C855.965 120.432 857.385 121 858.947 121H880.105C882.803 121 883.513 119.438 883.797 117.876L897.287 41.3379C897.713 38.7819 896.293 38.356 894.731 38.356H873.573Z" fill="#001A2B"/>
<path d="M980.708 67.04C980.708 48.864 969.348 37.078 949.61 37.078C925.896 37.078 910.276 47.444 905.448 75.56L904.028 83.796C903.46 86.778 903.318 89.76 903.318 92.458C903.318 110.35 914.11 122.278 934.558 122.278C959.266 122.278 973.892 111.344 978.578 83.796L979.998 75.56C980.282 73.856 980.708 69.17 980.708 67.04ZM953.586 68.318C953.586 70.306 953.302 72.72 952.876 75.56L951.456 83.796C949.326 95.866 945.776 99.558 938.676 99.558C933.28 99.558 930.44 97.57 930.44 90.896C930.44 88.908 930.724 86.636 931.15 83.796L932.57 75.56C934.558 64.342 938.392 59.94 945.634 59.94C951.172 59.94 953.586 62.07 953.586 68.318Z" fill="#001A2B"/>
<path d="M1069.1 62.496C1069.1 46.166 1058.16 37.22 1038.57 37.22H1033.74C1011.3 37.22 998.809 44.0359 994.549 68.46L985.887 117.876C985.603 119.296 986.455 121 988.301 121H1009.6C1012.16 121 1012.87 119.438 1013.15 117.876L1021.81 68.46C1022.81 63.064 1023.94 59.2299 1030.62 59.2299H1036.01C1040.7 59.2299 1041.98 61.076 1041.98 64.058C1041.98 65.336 1041.69 66.898 1041.41 68.46L1032.75 117.876C1032.32 120.148 1033.31 121 1035.16 121H1056.46C1058.16 121 1059.58 120.432 1060.01 117.876L1068.39 70.306C1068.81 67.608 1069.1 64.91 1069.1 62.496Z" fill="#001A2B"/>
<path d="M1146.34 43.752C1146.62 41.764 1145.77 41.196 1144.06 40.628C1137.67 38.7819 1129.15 37.078 1118.22 37.078C1100.04 37.078 1082.86 42.474 1082.86 63.632C1082.86 72.01 1086.55 78.542 1097.06 84.79L1108.56 91.606C1111.26 93.168 1111.97 94.02 1111.97 95.582C1111.97 99.842 1108 100.41 1104.59 100.41C1099.9 100.41 1088.68 99.274 1080.45 98.138C1077.61 97.712 1076.76 98.99 1076.47 101.12L1073.92 115.746C1073.63 117.308 1074.2 118.302 1076.05 118.87C1082.15 120.716 1092.38 122.278 1102.46 122.278C1122.2 122.278 1139.52 115.036 1139.52 94.304C1139.52 86.778 1136.68 79.82 1124.61 72.578L1115.66 67.324C1111.4 64.768 1110.55 63.916 1110.55 62.07C1110.55 59.656 1113.53 59.372 1116.37 59.372C1122.76 59.372 1136.25 61.076 1140.37 61.644C1142.64 61.928 1143.35 60.508 1143.64 58.804L1146.34 43.752Z" fill="#001A2B"/>
</svg>
