<svg width="1147" height="133" viewBox="0 0 1147 133" fill="none" xmlns="http://www.w3.org/2000/svg">
<path fill-rule="evenodd" clip-rule="evenodd" d="M64.0592 108.774H46.2427C43.4296 108.774 41.0853 106.196 41.5542 103.383L58.1985 3.98527C58.6674 1.64099 60.5428 0 62.8871 0H80.7036C83.5167 0 85.861 2.5787 85.3921 5.39183L68.7478 104.789C68.2789 107.133 66.4035 108.774 64.0592 108.774ZM22.5651 132.217H4.74859C1.93546 132.217 -0.408815 129.639 0.0600399 126.825L16.7044 27.4281C17.1732 25.0839 19.0487 23.4429 21.3929 23.4429H39.2094C42.0226 23.4429 44.3668 26.0216 43.898 28.8347L27.2536 128.232C26.7848 130.576 24.6749 132.217 22.5651 132.217ZM341.637 13.7899C341.921 12.228 342.915 10.95 345.471 10.95H367.907C369.469 10.95 370.889 11.376 370.463 13.7899L368.049 27.706C367.765 29.268 367.197 30.546 364.357 30.546H341.921C339.223 30.546 338.939 29.268 339.223 27.706L341.637 13.7899ZM337.519 41.338C337.803 39.776 338.797 38.356 341.211 38.356H362.369C363.931 38.356 365.351 38.7819 364.925 41.338L351.435 117.876C351.151 119.438 350.441 121 347.743 121H326.585C325.023 121 323.603 120.432 324.029 117.876L337.519 41.338ZM199.116 17.7659C199.116 16.4879 197.98 15.494 196.56 15.494H124.992C123.43 15.494 122.01 16.63 121.726 18.192L118.46 36.368V36.7939C118.46 38.214 119.454 39.066 120.874 39.066H142.458L128.542 118.16V118.728C128.542 120.006 129.394 121 130.814 121H153.96C155.522 121 157.084 119.722 157.368 118.16L171.284 39.066H192.442C194.004 39.066 195.566 37.93 195.85 36.368L199.116 18.192V17.7659ZM321.22 40.628C321.22 39.208 320.226 38.356 318.522 38.356H297.08C295.518 38.356 293.956 39.776 293.672 41.338L285.72 86.636C284.584 93.026 281.602 97.57 275.354 97.57C273.65 97.57 269.39 97.286 267.118 96.576L276.916 41.338V40.77C276.916 39.492 276.064 38.356 274.644 38.356H253.06C251.498 38.356 249.794 39.776 249.51 41.338L239.712 96.718C237.156 97.428 232.896 97.57 231.192 97.57C226.222 97.57 224.376 94.73 224.376 90.328C224.376 89.192 224.518 87.914 224.802 86.636L232.754 41.338V40.77C232.754 39.492 231.902 38.356 230.482 38.356H209.04C206.768 38.356 205.632 39.634 205.348 41.338L197.538 86.21C196.97 89.192 196.686 91.89 196.686 94.446C196.686 113.19 209.75 122.278 225.228 122.278C233.464 122.278 241.274 121.426 250.078 116.456C257.036 121.568 265.13 122.278 273.366 122.278C291.684 122.278 308.156 114.894 312.416 90.47L321.078 41.338C321.078 41.1716 321.127 41.0052 321.168 40.8674C321.196 40.77 321.22 40.6868 321.22 40.628ZM450.761 62.496C450.761 46.166 439.827 37.22 420.231 37.22H415.403C392.967 37.22 380.471 44.0359 376.211 68.46L367.549 117.876C367.265 119.296 368.117 121 369.963 121H391.263C393.819 121 394.529 119.438 394.813 117.876L403.475 68.46C404.469 63.064 405.605 59.2299 412.279 59.2299H417.675C422.361 59.2299 423.639 61.076 423.639 64.058C423.639 65.336 423.355 66.898 423.071 68.46L414.409 117.876C413.983 120.148 414.977 121 416.823 121H438.123C439.827 121 441.247 120.432 441.673 117.876L450.051 70.306C450.477 67.608 450.761 64.91 450.761 62.496ZM575.886 17.624C577.022 18.05 578.016 18.618 578.016 19.896V20.3219L574.892 38.0719C574.608 39.634 573.472 40.77 571.91 40.77H571.626C570.77 40.7058 569.679 40.619 568.408 40.5179C561.242 39.9482 548.36 38.924 539.676 38.924C535.7 38.924 531.582 40.202 531.582 44.888C531.582 46.876 533.002 48.154 537.83 50.994L555.154 61.218C565.378 67.182 569.354 74.992 569.354 84.932C569.354 111.486 547.06 122.278 522.92 122.278C511.276 122.278 502.188 120.716 494.946 118.586C493.668 118.16 492.532 117.45 492.532 116.172V115.746L495.514 98.28C495.798 96.718 497.076 95.44 498.78 95.44H499.064C499.593 95.4915 500.198 95.5513 500.867 95.6174C507.558 96.2788 520.622 97.57 527.464 97.57C533.144 97.57 537.83 95.582 537.83 89.192C537.83 87.062 536.41 85.5 532.292 82.802L513.974 70.732C505.738 65.336 501.762 56.106 501.762 47.3019C501.762 21.7419 521.784 14.074 544.362 14.074C555.58 14.074 570.348 15.92 575.886 17.624ZM657.742 67.0399C657.742 48.864 646.382 37.078 626.644 37.078C602.93 37.078 587.31 47.444 582.482 75.56L581.062 83.796C580.494 86.778 580.352 89.76 580.352 92.458C580.352 110.35 591.144 122.278 611.592 122.278C636.3 122.278 650.926 111.344 655.612 83.796L657.032 75.56C657.316 73.8559 657.742 69.17 657.742 67.0399ZM630.62 68.318C630.62 70.306 630.336 72.72 629.91 75.56L628.49 83.796C626.36 95.866 622.81 99.558 615.71 99.558C610.314 99.558 607.474 97.57 607.474 90.896C607.474 88.908 607.758 86.636 608.184 83.796L609.604 75.56C611.592 64.3419 615.426 59.94 622.668 59.94C628.206 59.94 630.62 62.07 630.62 68.318ZM685.072 11.2339H706.514C708.36 11.2339 709.212 12.3699 708.928 14.074L690.61 117.876C690.184 120.29 689.048 121 687.202 121H665.76C663.914 121 662.778 120.006 663.204 117.876L681.522 14.074C681.806 12.5119 682.658 11.2339 685.072 11.2339ZM791.247 38.356H769.947C767.391 38.356 766.681 39.9179 766.397 41.48L758.445 87.062C756.883 96.008 753.475 99.558 746.801 99.558H745.949C740.411 99.558 738.281 97.002 738.281 92.6C738.281 90.6967 738.508 89.247 738.759 87.6429C738.779 87.5153 738.799 87.3868 738.819 87.2569L738.849 87.062L746.801 41.48C747.227 39.3499 746.233 38.356 744.387 38.356H723.087C720.389 38.356 719.821 39.9179 719.537 41.48L711.727 85.216C711.159 88.056 711.017 90.754 711.017 93.31C711.017 110.776 723.229 122.278 743.251 122.278H744.103C766.965 122.278 781.307 111.344 785.141 89.476L793.661 41.48C794.087 39.208 793.093 38.356 791.247 38.356ZM836.819 38.356H855.563C857.267 38.356 858.261 39.208 857.835 41.338L855.279 55.68C854.995 57.242 854.143 58.662 851.871 58.662H833.127L826.453 97.144C826.437 97.2595 826.42 97.3732 826.404 97.4847L826.381 97.6433L826.38 97.6448C826.266 98.4234 826.169 99.0879 826.169 99.558C826.169 101.688 827.305 102.114 831.565 102.114H843.777C845.481 102.114 846.759 102.824 846.333 104.812L844.061 117.876C843.777 119.438 842.357 120.574 840.511 120.858C835.399 121.71 829.009 122.278 822.761 122.278C808.135 122.278 798.479 116.882 798.479 103.108C798.479 101.12 798.621 98.99 799.047 96.718L811.543 25.86C811.827 24.2979 813.389 23.162 815.093 22.8779L836.251 19.328C839.233 18.902 839.943 20.3219 839.659 22.1679L836.819 38.356ZM877.833 10.95C875.277 10.95 874.283 12.228 873.999 13.7899L871.585 27.706C871.301 29.268 871.585 30.546 874.283 30.546H896.719C899.559 30.546 900.127 29.268 900.411 27.706L902.825 13.7899C903.251 11.376 901.831 10.95 900.269 10.95H877.833ZM873.573 38.356C871.159 38.356 870.165 39.776 869.881 41.338L856.391 117.876C855.965 120.432 857.385 121 858.947 121H880.105C882.803 121 883.513 119.438 883.797 117.876L897.287 41.338C897.713 38.7819 896.293 38.356 894.731 38.356H873.573ZM949.61 37.078C969.348 37.078 980.708 48.864 980.708 67.0399C980.708 69.17 980.282 73.8559 979.998 75.56L978.578 83.796C973.892 111.344 959.266 122.278 934.558 122.278C914.11 122.278 903.318 110.35 903.318 92.458C903.318 89.76 903.46 86.778 904.028 83.796L905.448 75.56C910.276 47.444 925.896 37.078 949.61 37.078ZM952.876 75.56C953.302 72.72 953.586 70.306 953.586 68.318C953.586 62.07 951.172 59.94 945.634 59.94C938.392 59.94 934.558 64.3419 932.57 75.56L931.15 83.796C930.724 86.636 930.44 88.908 930.44 90.896C930.44 97.57 933.28 99.558 938.676 99.558C945.776 99.558 949.326 95.866 951.456 83.796L952.876 75.56ZM1069.1 62.496C1069.1 46.166 1058.16 37.22 1038.57 37.22H1033.74C1011.3 37.22 998.809 44.0359 994.549 68.46L985.887 117.876C985.603 119.296 986.455 121 988.301 121H1009.6C1012.16 121 1012.87 119.438 1013.15 117.876L1021.81 68.46C1022.81 63.064 1023.94 59.2299 1030.62 59.2299H1036.01C1040.7 59.2299 1041.98 61.076 1041.98 64.058C1041.98 65.336 1041.69 66.898 1041.41 68.46L1032.75 117.876C1032.32 120.148 1033.31 121 1035.16 121H1056.46C1058.16 121 1059.58 120.432 1060.01 117.876L1068.39 70.306C1068.81 67.608 1069.1 64.91 1069.1 62.496ZM1144.06 40.628C1145.77 41.196 1146.62 41.764 1146.34 43.752L1143.64 58.804C1143.35 60.5079 1142.64 61.928 1140.37 61.644C1136.25 61.076 1122.76 59.372 1116.38 59.372C1113.53 59.372 1110.55 59.656 1110.55 62.07C1110.55 63.916 1111.4 64.768 1115.66 67.324L1124.61 72.578C1136.68 79.82 1139.52 86.778 1139.52 94.304C1139.52 115.036 1122.2 122.278 1102.46 122.278C1092.38 122.278 1082.15 120.716 1076.05 118.87C1074.2 118.302 1073.63 117.308 1073.92 115.746L1076.47 101.12C1076.76 98.99 1077.61 97.712 1080.45 98.138C1088.68 99.274 1099.9 100.41 1104.59 100.41C1108 100.41 1111.97 99.842 1111.97 95.582C1111.97 94.02 1111.26 93.168 1108.56 91.606L1097.06 84.79C1086.55 78.542 1082.86 72.0099 1082.86 63.632C1082.86 42.474 1100.04 37.078 1118.22 37.078C1129.15 37.078 1137.67 38.7819 1144.06 40.628Z" fill="#B2D233"/>
</svg>
