<?xml version="1.0" encoding="UTF-8"?>
<svg width="24px" height="24px" viewBox="0 0 24 24" version="1.1" xmlns="http://www.w3.org/2000/svg" xmlns:xlink="http://www.w3.org/1999/xlink">
    <title>Icon/product/copyright</title>
    <g id="Icon/product/copyright" stroke="none" stroke-width="1" fill="none" fill-rule="evenodd">
        <g id="Icon-24px" transform="translate(2.000000, 2.000000)" fill="#8B96A0">
            <path d="M8.08,8.86 C8.13,8.53 8.24,8.24 8.38,7.99 C8.52,7.74 8.72,7.53 8.97,7.37 C9.21,7.22 9.51,7.15 9.88,7.14 C10.11,7.15 10.32,7.19 10.51,7.27 C10.71,7.36 10.89,7.48 11.03,7.63 C11.17,7.78 11.28,7.96 11.37,8.16 C11.46,8.36 11.5,8.58 11.51,8.8 L13.3,8.8 C13.28,8.33 13.19,7.9 13.02,7.51 C12.85,7.12 12.62,6.78 12.32,6.5 C12.02,6.22 11.66,6 11.24,5.84 C10.82,5.68 10.36,5.61 9.85,5.61 C9.2,5.61 8.63,5.72 8.15,5.95 C7.67,6.18 7.27,6.48 6.95,6.87 C6.63,7.26 6.39,7.71 6.24,8.23 C6.09,8.75 6,9.29 6,9.87 L6,10.14 C6,10.72 6.08,11.26 6.23,11.78 C6.38,12.3 6.62,12.75 6.94,13.13 C7.26,13.51 7.66,13.82 8.14,14.04 C8.62,14.26 9.19,14.38 9.84,14.38 C10.31,14.38 10.75,14.3 11.16,14.15 C11.57,14 11.93,13.79 12.24,13.52 C12.55,13.25 12.8,12.94 12.98,12.58 C13.16,12.22 13.27,11.84 13.28,11.43 L11.49,11.43 C11.48,11.64 11.43,11.83 11.34,12.01 C11.25,12.19 11.13,12.34 10.98,12.47 C10.83,12.6 10.66,12.7 10.46,12.77 C10.27,12.84 10.07,12.86 9.86,12.87 C9.5,12.86 9.2,12.79 8.97,12.64 C8.72,12.48 8.52,12.27 8.38,12.02 C8.24,11.77 8.13,11.47 8.08,11.14 C8.03,10.81 8,10.47 8,10.14 L8,9.87 C8,9.52 8.03,9.19 8.08,8.86 L8.08,8.86 Z M10,0 C4.48,0 0,4.48 0,10 C0,15.52 4.48,20 10,20 C15.52,20 20,15.52 20,10 C20,4.48 15.52,0 10,0 L10,0 Z M10,18 C5.59,18 2,14.41 2,10 C2,5.59 5.59,2 10,2 C14.41,2 18,5.59 18,10 C18,14.41 14.41,18 10,18 L10,18 Z" id="Shape"></path>
        </g>
    </g>
</svg>