<svg xmlns="http://www.w3.org/2000/svg" width="18" height="19" viewBox="0 0 18 19">
    <g fill="none" fill-rule="evenodd">
        <g fill="#8B96A0">
            <g>
                <g>
                    <g>
                        <g>
                            <g>
                                <g>
                                    <g>
                                        <path d="M1.5 4.875C.877 4.875.375 5.378.375 6S.877 7.125 1.5 7.125 2.625 6.622 2.625 6 2.123 4.875 1.5 4.875zm0-4.5C.877.375.375.877.375 1.5S.877 2.625 1.5 2.625 2.625 2.123 2.625 1.5 2.123.375 1.5.375zm0 9.127c-.555 0-.998.45-.998.998 0 .547.45.998.998.998.547 0 .998-.45.998-.998 0-.547-.443-.998-.998-.998zm2.25 1.748h10.5v-1.5H3.75v1.5zm0-4.5h10.5v-1.5H3.75v1.5zm0-6v1.5h10.5V.75H3.75z" transform="translate(-646 -396) translate(297 385.461) translate(1) translate(7 4) translate(334) translate(4 4) translate(3 3) translate(1.5 3)"/>
                                    </g>
                                </g>
                            </g>
                        </g>
                    </g>
                </g>
            </g>
        </g>
    </g>
</svg>
