<svg xmlns="http://www.w3.org/2000/svg" width="18" height="19" viewBox="0 0 18 19">
    <g fill="none" fill-rule="evenodd">
        <g fill="#8B96A0">
            <g>
                <g>
                    <g>
                        <g>
                            <g>
                                <g>
                                    <g>
                                        <path d="M0 9.75h1.5v.375H.75v.75h.75v.375H0V12h2.25V9H0v.75zM.75 3h.75V0H0v.75h.75V3zM0 5.25h1.35L0 6.825V7.5h2.25v-.75H.9l1.35-1.575V4.5H0v.75zM3.75.75v1.5h10.5V.75H3.75zm0 10.5h10.5v-1.5H3.75v1.5zm0-4.5h10.5v-1.5H3.75v1.5z" transform="translate(-610 -396) translate(297 385.461) translate(1) translate(7 4) translate(298) translate(4 4) translate(3 3) translate(1.5 3)"/>
                                    </g>
                                </g>
                            </g>
                        </g>
                    </g>
                </g>
            </g>
        </g>
    </g>
</svg>
