<svg xmlns="http://www.w3.org/2000/svg" width="18" height="19" viewBox="0 0 18 19">
    <g fill="none" fill-rule="evenodd">
        <g fill="#8B96A0">
            <g>
                <g>
                    <g>
                        <g>
                            <g>
                                <g>
                                    <path d="M6.45 5.093C7.178 4.59 7.687 3.764 7.687 3c0-1.695-1.312-3-3-3H0v10.5h5.28c1.567 0 2.782-1.275 2.782-2.843 0-1.14-.644-2.114-1.612-2.564zm-4.2-3.218H4.5c.622 0 1.125.502 1.125 1.125S5.122 4.125 4.5 4.125H2.25v-2.25zm2.625 6.75H2.25v-2.25h2.625C5.497 6.375 6 6.878 6 7.5c0 .623-.503 1.125-1.125 1.125z" transform="translate(-312 -396) translate(297 385.461) translate(1) translate(7 4) translate(4 4) translate(3 3) translate(5.25 3)"/>
                                </g>
                            </g>
                        </g>
                    </g>
                </g>
            </g>
        </g>
    </g>
</svg>
