<svg xmlns="http://www.w3.org/2000/svg" width="18" height="19" viewBox="0 0 18 19">
    <g fill="none" fill-rule="evenodd">
        <g fill="#8B96A0">
            <g>
                <g>
                    <g>
                        <g>
                            <g>
                                <g>
                                    <path d="M3.762 14.262v-4.5H6.75v4.5h1.512V3.75H6.75v4.5H3.762v-4.5H2.25v10.512h1.512zm11.988 0V12.75h-4.5l3.621-3.867c.563-.563.844-1.272.844-2.127 0-.856-.281-1.565-.844-2.127-.562-.563-1.271-.844-2.127-.844-.855 0-1.564.281-2.127.844-.562.562-.855 1.277-.879 2.144h1.512c0-.421.146-.779.44-1.072.292-.293.65-.44 1.072-.44.422 0 .773.147 1.054.44.282.293.422.65.422 1.072 0 .422-.14.774-.422 1.055L10.16 11.73c-.258.282-.387.627-.387 1.038 0 .41.141.761.422 1.054.282.293.633.44 1.055.44h4.5z" transform="translate(-497 -396) translate(297 385.461) translate(1) translate(7 4) translate(185) translate(4 4) translate(3 3)"/>
                                </g>
                            </g>
                        </g>
                    </g>
                </g>
            </g>
        </g>
    </g>
</svg>
