<svg xmlns="http://www.w3.org/2000/svg" width="18" height="19" viewBox="0 0 18 19">
    <g fill="none" fill-rule="evenodd">
        <g fill="#8B96A0">
            <g>
                <g>
                    <g>
                        <g>
                            <g>
                                <g>
                                    <path d="M3.762 14.262v-4.5H6.75v4.5h1.512V3.75H6.75v4.5H3.762v-4.5H2.25v10.512h1.512zm10.476 0c.422 0 .78-.147 1.073-.44.293-.293.439-.65.439-1.072V5.262c0-.422-.146-.774-.44-1.055-.292-.281-.65-.434-1.072-.457H11.25c-.422.023-.773.176-1.055.457-.28.281-.433.633-.457 1.055V6h1.512v-.738h2.988V8.25H11.25v1.512h2.988v2.988H11.25v-.738H9.738v.738c.024.422.176.78.457 1.072.282.293.633.44 1.055.44h2.988z" transform="translate(-533 -396) translate(297 385.461) translate(1) translate(7 4) translate(221) translate(4 4) translate(3 3)"/>
                                </g>
                            </g>
                        </g>
                    </g>
                </g>
            </g>
        </g>
    </g>
</svg>
