<svg xmlns="http://www.w3.org/2000/svg" width="18" height="19" viewBox="0 0 18 19">
    <g fill="none" fill-rule="evenodd">
        <g fill="#8B96A0">
            <g>
                <g>
                    <g>
                        <g>
                            <g>
                                <g>
                                    <g>
                                        <path d="M1.425 3.75c0-1.283 1.042-2.325 2.325-2.325h3V0h-3C1.68 0 0 1.68 0 3.75 0 5.82 1.68 7.5 3.75 7.5h3V6.075h-3c-1.283 0-2.325-1.043-2.325-2.325zM4.5 4.5h6V3h-6v1.5zM11.25 0h-3v1.425h3c1.283 0 2.325 1.042 2.325 2.325 0 1.282-1.042 2.325-2.325 2.325h-3V7.5h3C13.32 7.5 15 5.82 15 3.75 15 1.68 13.32 0 11.25 0z" transform="translate(-800 -396) translate(297 385.461) translate(1) translate(7 4) translate(488) translate(4 4) translate(3 3) translate(1.5 5.25)"/>
                                    </g>
                                </g>
                            </g>
                        </g>
                    </g>
                </g>
            </g>
        </g>
    </g>
</svg>
