<?xml version="1.0" encoding="UTF-8"?>
<svg width="24px" height="24px" viewBox="0 0 24 24" version="1.1" xmlns="http://www.w3.org/2000/svg" xmlns:xlink="http://www.w3.org/1999/xlink">
    <title>Icon/product/industry_codes</title>
    <g id="Icon/product/industry_codes" stroke="none" stroke-width="1" fill="none" fill-rule="evenodd">
        <path d="M18.984375,21 C19.546875,21 20.0234375,20.8046875 20.4140625,20.4140625 C20.8046875,20.0234375 21,19.546875 21,18.984375 L21,18.984375 L21,5.015625 C21,4.453125 20.8046875,3.9765625 20.4140625,3.5859375 C20.0234375,3.1953125 19.546875,3 18.984375,3 L18.984375,3 L5.015625,3 C4.453125,3 3.9765625,3.1953125 3.5859375,3.5859375 C3.1953125,3.9765625 3,4.453125 3,5.015625 L3,5.015625 L3,18.984375 C3,19.546875 3.1875,20.0234375 3.5625,20.4140625 C3.9375,20.8046875 4.421875,21 5.015625,21 L5.015625,21 L18.984375,21 Z M9.984375,18 L6,18 L6,6 L9.984375,6 L9.984375,8.015625 L8.015625,8.015625 L8.015625,15.984375 L9.984375,15.984375 L9.984375,18 Z M18,18 L14.015625,18 L14.015625,15.984375 L15.984375,15.984375 L15.984375,8.015625 L14.015625,8.015625 L14.015625,6 L18,6 L18,18 Z" id="shape" fill="#8B96A0"></path>
    </g>
</svg>