<svg xmlns="http://www.w3.org/2000/svg" width="18" height="19" viewBox="0 0 18 19">
    <g fill="none" fill-rule="evenodd">
        <g fill="#8B96A0">
            <g>
                <g>
                    <g>
                        <g>
                            <g>
                                <g>
                                    <g>
                                        <path d="M3.18 4.313c-.195-.36-.292-.773-.292-1.253 0-.458.097-.87.3-1.252.194-.375.472-.698.832-.968.36-.262.788-.472 1.275-.622C5.79.075 6.338 0 6.93 0c.607 0 1.155.083 1.658.255.495.165.922.405 1.267.705.352.3.622.66.81 1.073.188.412.285.862.285 1.357H8.693c0-.232-.038-.443-.113-.638-.068-.202-.18-.367-.33-.51-.15-.142-.338-.247-.563-.33-.224-.075-.495-.12-.795-.12-.292 0-.554.03-.772.098-.218.068-.397.157-.54.27-.143.12-.255.255-.33.412-.075.158-.112.323-.112.495 0 .36.187.66.554.908.285.187.578.36 1.058.525H3.292c-.037-.06-.082-.128-.112-.188zM13.5 6.75v-1.5H0v1.5h7.215c.135.053.3.105.413.15.277.127.495.255.652.382.158.128.263.27.322.428.053.15.083.323.083.517 0 .173-.037.338-.105.495-.068.15-.172.286-.315.398-.143.113-.315.195-.533.263-.217.06-.472.097-.757.097-.322 0-.622-.03-.885-.098-.263-.067-.495-.172-.683-.314-.187-.143-.337-.33-.442-.563-.105-.232-.188-.57-.188-.908H2.55c0 .413.06.848.18 1.186.12.337.277.637.487.907.21.263.45.495.736.69.277.195.584.36.914.487.33.128.676.225 1.035.293.36.06.72.098 1.08.098.6 0 1.148-.068 1.635-.21.488-.143.908-.338 1.253-.593.345-.255.615-.578.803-.953.187-.375.284-.802.284-1.282 0-.45-.075-.855-.232-1.208-.037-.082-.082-.172-.127-.247H13.5V6.75z" transform="translate(-420 -396) translate(297 385.461) translate(1) translate(7 4) translate(108) translate(4 4) translate(3 3) translate(2.25 2.25)"/>
                                    </g>
                                </g>
                            </g>
                        </g>
                    </g>
                </g>
            </g>
        </g>
    </g>
</svg>
