<svg xmlns="http://www.w3.org/2000/svg" viewBox="0 0 294.13 65.77"><defs><style>.cls-1{fill:#ff3600;fill-rule:evenodd;}</style></defs><title>Asset 1</title><g id="Layer_2" data-name="Layer 2"><g id="Layer_1-2" data-name="Layer 1"><path class="cls-1" d="M34.45,11.84,0,65.77,8.17,64a22.88,22.88,0,0,0,14.37-10L57,0,48.82,1.8A22.84,22.84,0,0,0,34.45,11.84Zm28.51,0q-17.24,27-34.45,53.93L36.67,64A22.85,22.85,0,0,0,51,53.93Q68.28,27,85.49,0L77.33,1.8A22.84,22.84,0,0,0,63,11.84ZM102.77,25.2l-1,4.9H97.66l-1.67,8a6.36,6.36,0,0,0-.17,1.11c0,.73.47,1.17,1.39,1.3.17,0,.92.05,2.25.05l-1.31,6.08H96c-1.23,0-2.4,0-3.52-.08A14.12,14.12,0,0,1,88.63,46a3,3,0,0,1-1.92-3.06,20.39,20.39,0,0,1,.53-3.89l1.92-8.95h-3l1-4.9h3l1.44-6.66h8.5L98.68,25.2Zm39,0-11.4,21.41h-8.29l-.62-12.54h-.08l-5.68,12.54h-8.29l-2.5-21.41h8.3l.45,13.24h.08l6.13-13.24H127l.45,13.24h.08L133.7,25.2Zm12.56-8.79L153,22.46h-8.5l1.31-6.05Zm-1.88,8.79-4.58,21.41h-8.5l4.58-21.41ZM178,30.72a15.1,15.1,0,0,1-.37,3.06l-2.74,12.83h-8.5l2.41-11.32a7.58,7.58,0,0,0,.21-1.63,2.08,2.08,0,0,0-2.33-2.37q-3.31,0-4.25,4.41l-2.37,10.91h-8.5l4.57-21.41h7.77l-.7,3.35q3.77-4,8.05-4Q178,24.59,178,30.72Zm24.54-.37a5.85,5.85,0,0,1-.09,1h-7.72c.05-1.39-.64-2.08-2.09-2.08a5,5,0,0,0-1.71.28q-1,.45-1,1.23c0,.79,1,1.46,3.06,2a38.92,38.92,0,0,1,5.64,1.72c2,1,3.07,2.52,3.07,4.45q0,4.24-4.79,6.54a19.66,19.66,0,0,1-8.5,1.76q-9.27,0-9.27-6.13A7.86,7.86,0,0,1,179.2,40h8.09a3.28,3.28,0,0,0-.08.62c0,1.33.83,2,2.49,2a4.31,4.31,0,0,0,2.05-.49,1.79,1.79,0,0,0,1.1-1.64c0-.76-1-1.36-2.94-1.79a35.35,35.35,0,0,1-5.52-1.44,4.35,4.35,0,0,1-2.94-4.16,7.19,7.19,0,0,1,4-6.5,15.18,15.18,0,0,1,7.81-2Q202.53,24.59,202.54,30.35Zm15.34-13.16-6.29,29.42h-8.5l6.29-29.42Zm24.49,12.63a18.58,18.58,0,0,1-.49,3.63l-2.12,10a8.45,8.45,0,0,0-.21,1.22,2,2,0,0,0,.74,1.52l-.08.4h-8.79l.08-2.28a13.59,13.59,0,0,1-8.66,2.9,7.76,7.76,0,0,1-4.37-1.11,4.26,4.26,0,0,1-2.05-3.84,7.08,7.08,0,0,1,3.15-6.13,14.17,14.17,0,0,1,6.78-2.29c2.54-.27,4-.45,4.42-.53,2-.46,3.06-1.22,3.06-2.29,0-.89-.82-1.35-2.45-1.35-1.83,0-3,.7-3.43,2.09h-8.18q1.56-7.2,13.24-7.19a18.82,18.82,0,0,1,6.09.73A4.46,4.46,0,0,1,242.37,29.82Zm-9.76,7.31a17.56,17.56,0,0,1-3.6,1q-3.64.7-3.64,2.86c0,1,.78,1.43,2.33,1.43C230.24,42.4,231.87,40.65,232.61,37.13Zm34.31-6.78a5.78,5.78,0,0,1-.08,1h-7.72c.05-1.39-.64-2.08-2.09-2.08a4.91,4.91,0,0,0-1.71.28c-.68.3-1,.71-1,1.23,0,.79,1,1.46,3.07,2A38.92,38.92,0,0,1,263,34.48c2,1,3.07,2.52,3.07,4.45q0,4.24-4.79,6.54a19.69,19.69,0,0,1-8.5,1.76q-9.27,0-9.27-6.13a7.86,7.86,0,0,1,.08-1.15h8.09a2.62,2.62,0,0,0-.08.62c0,1.33.83,2,2.49,2a4.27,4.27,0,0,0,2-.49,1.78,1.78,0,0,0,1.11-1.64c0-.76-1-1.36-3-1.79a35.44,35.44,0,0,1-5.51-1.44,4.35,4.35,0,0,1-2.94-4.16,7.19,7.19,0,0,1,4-6.5,15.15,15.15,0,0,1,7.81-2Q266.92,24.59,266.92,30.35Zm27.21.33a14.61,14.61,0,0,1-.37,3.1L291,46.61h-8.5l2.41-11.32a7.58,7.58,0,0,0,.21-1.63,2.08,2.08,0,0,0-2.33-2.37q-3.31,0-4.25,4.41l-2.33,10.91h-8.5L274,17.19h8.5L280.23,27.9a10,10,0,0,1,7.2-3.31Q294.12,24.59,294.13,30.68Z"/></g></g></svg>